<svg width="327" height="85" viewBox="0 0 327 85" fill="none" xmlns="http://www.w3.org/2000/svg">
<path fill-rule="evenodd" clip-rule="evenodd" d="M67.1073 43.3812C66.8076 44.6443 68.1246 45.6482 69.7124 45.6482C72.5438 45.6482 74.0132 42.9591 72.1923 41.6867C70.7592 40.6856 67.6807 40.9675 67.1073 43.3812ZM72.233 43.3784C72.1065 44.2906 71.0144 45.1724 69.7131 45.1724C68.6018 45.1724 67.603 44.4442 67.839 43.4526C68.0573 42.5324 68.8238 41.6225 70.2458 41.6225C71.397 41.6225 72.3928 42.2295 72.233 43.3784Z" fill="#47663B"/>
<path d="M83.7373 8.55709C84.4024 8.44158 86.3675 9.04291 85.9946 9.25064C85.9206 9.292 85.0528 9.59623 83.9429 9.53443C83.0018 9.48262 82.93 8.77528 83.7373 8.55709Z" fill="#47663B"/>
<path d="M91.7036 4.98282C91.5223 4.76225 90.9933 4.66385 90.6182 4.84972C90.4436 4.93671 90.3148 5.07456 90.3274 5.2224C90.3629 5.63026 90.761 6.21495 90.8069 6.27152C90.8868 6.36849 91.0969 6.3547 91.1812 6.27152C91.3825 6.07472 91.9026 5.3959 91.7776 5.09643L91.7036 4.98282Z" fill="#47663B"/>
<path d="M99.4584 8.09416C99.5811 7.91598 99.7036 7.73809 100.436 7.48454C101.026 7.28014 101.696 7.61764 101.522 8.02122C101.475 8.13246 101.343 8.24987 101.183 8.30549C100.388 8.58038 100.194 8.55427 99.9239 8.51804C99.7834 8.4992 99.6226 8.47762 99.3465 8.49421C99.2081 8.50276 99.1756 8.39105 99.2444 8.33591C99.3504 8.25096 99.4044 8.17253 99.4584 8.09416Z" fill="#47663B"/>
<path d="M94.0011 11.7794C93.7998 11.6795 93.6468 11.7689 92.9044 12.2026C92.7463 12.295 92.5615 12.403 92.3438 12.5281C92.1129 12.6602 92.033 12.9778 92.4111 13.1655C92.713 13.3153 93.1746 13.2777 93.3877 13.0457C93.503 12.8745 93.603 12.7283 93.6888 12.603C94.1199 11.9731 94.1887 11.8726 94.0011 11.7794Z" fill="#47663B"/>
<path d="M97.5139 17.0725C97.582 16.9551 97.7662 16.899 97.9468 16.9593C98.0208 16.9841 99.1698 17.7679 99.152 18.0807C99.1106 18.8118 97.7507 18.7334 97.5805 18.1449C97.5369 18.0004 97.4333 17.2103 97.5139 17.0725Z" fill="#47663B"/>
<path d="M106.282 13.141C105.605 13.1091 105.189 13.2691 104.895 13.3817C104.773 13.4285 104.673 13.4671 104.584 13.4804C104.38 13.5113 104.38 13.7142 104.584 13.7451C104.584 13.7451 104.586 13.7457 104.588 13.7465L104.605 13.752L104.643 13.7648C104.803 13.8185 105.25 13.9693 105.631 14.0608C105.777 14.096 106.011 14.0936 106.262 14.0855C107.255 14.0527 107.3 13.188 106.282 13.141Z" fill="#47663B"/>
<path d="M84.8612 17.2662C85.018 17.2709 85.1741 17.2781 85.3169 17.3185C85.658 17.3831 87.0098 17.6479 86.7005 17.7605C86.6265 17.7876 85.2969 18.1323 84.8612 18.1456C84.2796 18.1637 83.7225 17.6949 84.395 17.3593C84.5289 17.2928 84.6917 17.2609 84.8612 17.2662Z" fill="#47663B"/>
<path fill-rule="evenodd" clip-rule="evenodd" d="M95.8232 29.2934C94.3368 28.2552 91.1997 28.5822 90.6189 31.0303C90.3111 32.3295 91.6651 33.3506 93.2847 33.3506C96.1784 33.3506 97.69 30.5982 95.8232 29.2934ZM95.8824 31.027C95.6693 32.5577 93.2492 33.4571 91.8967 32.4507C91.4291 32.1028 91.2301 31.6112 91.3514 31.1016C91.9921 28.3978 96.1961 28.7814 95.8824 31.027Z" fill="#47663B"/>
<path fill-rule="evenodd" clip-rule="evenodd" d="M58.721 39.5816C51.7619 38.3668 48.1391 37.8252 46.2558 37.5436C45.3944 37.4149 44.897 37.3405 44.6106 37.281C39.2219 39.1768 33.6929 40.8786 33.3637 40.8786C33.198 40.8786 33.0508 40.8068 33.0071 40.7027C32.8982 40.4429 32.7991 40.2183 32.7129 40.0228C32.2564 38.9878 32.1614 38.7724 32.8821 38.5042C33.4732 38.2841 34.0688 38.0678 34.6674 37.8534C34.6492 37.8414 34.6308 37.8296 34.6119 37.8176L34.5831 37.7992C34.1569 37.5273 34.1857 37.2521 34.6607 37.0381L40.9497 34.2074L36.2397 34.4498C34.2797 35.9634 32.2739 37.4641 30.2548 38.9263C30.1822 38.9786 30.0809 39.0061 29.978 39.0061C29.845 39.0061 29.8243 38.9964 29.1532 38.6795L29.1515 38.6787L29.1475 38.6768C28.9311 38.5746 28.6476 38.4408 28.2719 38.2655C28.1024 38.1866 28.0699 38.034 28.1949 37.929C29.8241 36.5566 31.4992 35.1662 33.1825 33.7853C33.1203 33.6246 33.0966 33.4449 33.107 33.2548C28.596 35.1832 28.5742 35.1832 28.1087 35.1824L28.0795 35.1823C27.8102 35.1823 27.5793 35.1191 27.404 34.9917C27.2422 34.8751 27.1883 34.736 27.1449 34.624L27.1435 34.6205C27.0807 34.456 27.0747 34.4498 26.8698 34.3438L26.8685 34.3431C26.6895 34.25 26.4458 34.1232 26.4192 33.9017C26.3822 33.5815 26.8427 33.3957 27.016 33.3257L34.9597 30.1682C34.6568 30.143 34.3872 30.1209 34.1459 30.1011L34.1394 30.1006C32.8803 29.9972 32.392 29.9571 31.9535 29.8707C27.037 30.9597 22.3025 31.8995 22.0776 31.8995C21.9044 31.8995 21.7565 31.823 21.7173 31.716C21.4916 31.0938 21.4006 30.4549 21.4465 29.8165C21.4746 29.4167 21.6988 29.266 22.2167 29.1462C26.2505 28.2193 30.3191 27.4178 34.6245 26.7034C34.7717 26.0412 35.0647 25.3985 35.4998 24.7881C35.5767 24.6807 35.7654 24.6265 35.9415 24.6593L46.5597 26.6834L46.5689 26.6604C43.7413 25.9789 38.5559 24.6048 33.3528 22.8133C32.5493 22.5362 32.4287 22.2257 32.7994 21.7461C33.1071 21.3474 33.3459 21.0351 33.5333 20.79L33.534 20.7891C34.1309 20.0084 34.2049 19.9116 34.3213 19.8809C34.3417 19.8755 34.3634 19.8721 34.3894 19.8675C34.49 19.8489 34.5981 19.8594 34.6868 19.8955C37.6626 21.1068 40.742 22.2376 43.8865 23.2763C43.5595 22.983 43.2406 22.6864 42.9299 22.3864C42.8263 22.2856 42.8559 22.1506 43.0002 22.0727L45.2871 20.8377L45.2864 20.8391C45.4699 20.7402 45.7599 20.7764 45.8628 20.9242C46.5138 21.8637 47.2706 22.7714 48.125 23.6395C48.3109 23.5096 48.5478 23.4227 48.8627 23.3935C48.1065 21.7787 47.5438 20.1268 47.1824 18.4558C47.1565 18.336 47.2742 18.2234 47.4555 18.1929L50.0983 17.7508C50.9625 17.6054 51.402 17.8578 51.4516 18.4496C51.563 19.775 51.8001 21.0977 52.1614 22.4058C52.9492 22.172 53.7438 21.9475 54.5448 21.7324C53.8566 18.7317 54.7941 15.9199 57.6555 13.9851C56.0832 13.0681 56.1173 11.8602 57.0628 11.2636C57.5384 10.9638 58.1559 10.8467 58.7404 10.7359C58.9361 10.6987 59.1281 10.6623 59.3099 10.62C59.9306 10.4755 60.5144 10.1541 60.4278 9.81854C60.3713 9.59668 60.0537 9.4282 59.7027 9.24194C59.4565 9.11133 59.1939 8.97199 58.9932 8.79937C58.2237 8.13767 58.6055 7.1841 59.4186 6.64409C60.2846 6.06885 61.4478 5.87199 62.457 5.70119C63.4535 5.53255 64.2998 5.38932 64.5616 4.93232C64.66 4.76081 64.6466 4.53001 64.6327 4.29116C64.6215 4.09906 64.6101 3.90174 64.6563 3.72586C65.1838 1.70558 70.7735 1.94421 73.8803 2.40436C79.8526 -0.560441 88.4722 -0.680231 95.2303 1.47836C100.383 3.12376 105.192 5.76191 108.573 8.90694C111.889 5.39818 117.239 1.38801 123.463 0.694421C124.794 0.54706 126.043 0.670653 126.984 1.04524C128.134 1.50253 128.773 2.35818 128.538 3.12588C128.402 3.57177 128.008 3.94731 127.568 4.31951C130.614 3.5461 133.776 3.45055 135.967 5.07391C136.604 4.52534 137.466 4.08516 138.449 3.81943C138.819 3.71913 139.138 4.01956 138.857 4.20447L138.858 4.20543C138.929 4.28385 139.091 4.35668 139.27 4.43725C139.721 4.64041 140.282 4.89276 139.772 5.40809C139.68 5.49921 139.68 5.50024 139.693 5.56596L139.697 5.58302C139.761 5.94667 139.499 6.1197 138.937 6.17817L137.141 6.36308C137.614 7.2135 137.592 8.10242 137.072 8.85254C138.404 9.52517 139.275 10.5995 138.948 11.6063C138.548 12.8421 136.452 13.7555 133.753 14.932C130.042 16.5495 125.19 18.6641 122.035 22.7969C127.317 23.594 131.704 24.429 133.647 25.0529C136.887 26.0935 139.62 29.1757 140.977 31.4988C141.055 31.6323 140.932 31.7673 140.746 31.8077C140.743 31.8109 140.741 31.8133 140.739 31.8156C140.707 31.8485 140.649 31.8707 136.623 33.8618C136.407 33.9678 136.099 33.8941 136.037 33.7282C135.73 32.8996 134.62 32.122 133.339 31.8367C131.954 31.5278 130.763 31.8323 129.712 32.4074C130.14 32.4099 130.33 32.4376 130.915 32.5232C131.133 32.555 131.405 32.5949 131.765 32.6444L131.763 32.6439C134.728 33.0523 136.214 34.3191 135.951 36.211C135.663 38.2807 133.179 39.7905 130.837 39.7349C129.299 39.7031 127.521 39.5279 126.321 38.918C123.395 40.644 116.661 44.3321 113.36 46.1321C113.145 46.2495 112.815 46.1749 112.758 45.999C112.273 44.4881 109.314 43.4246 106.952 44.3959C107.038 44.4115 107.123 44.4288 107.208 44.4479L107.207 44.4484C110.773 44.8159 112.249 46.1117 111.984 48.0126C111.703 50.0353 109.273 51.5046 106.994 51.45C105.906 51.4272 105.051 51.344 104.398 51.1947C103.942 51.1481 103.518 51.0495 103.135 50.9083C102.054 51.5157 100.918 52.1301 100.541 52.3332C100.475 52.3694 100.39 52.3889 100.304 52.3889C100.09 52.3889 92.51 51.7194 83.5504 50.8479C71.8236 57.1019 40.2555 73.1873 37.5403 74.4631C34.7015 75.7969 68.9794 57.5669 82.3637 50.7321C78.2219 50.3264 73.8471 49.8828 69.8094 49.446C55.1409 57.2745 27.667 71.9352 15.5258 78.055C15.3948 78.1211 15.2069 78.0084 15.3379 77.9343C19.2571 75.7205 59.152 54.2346 68.3533 49.2871C65.0876 48.9275 62.1 48.5763 59.7132 48.2585C59.4402 48.3849 59.0251 48.1924 58.9637 48.0745C56.744 43.8127 56.7424 41.6647 58.721 39.5816ZM67.4196 33.5237C68.7798 32.6933 70.1633 31.8793 71.5693 31.0818C65.3961 28.2269 61.0296 23.8864 59.4967 19.5414C59.0323 19.2448 58.5806 18.9399 58.1483 18.6246C57.0333 17.8108 56.7084 17.1367 58.1512 15.7429C58.516 15.3907 58.897 15.0456 59.2929 14.7071C58.9414 14.5783 58.5796 14.44 58.2348 14.2817C54.6804 16.6542 54.4925 20.0934 55.8176 23.2741C57.6835 27.7522 62.105 31.2442 67.4196 33.5237ZM66.8593 33.8675C61.6469 31.5692 57.8591 28.3069 55.8843 24.9776C53.1269 24.5115 50.8759 24.1279 49.7986 23.9371C48.7961 23.7598 48.6015 23.8667 48.3447 24.3925C46.3752 28.4326 45.2424 32.6233 44.9798 36.8521C49.7007 37.567 54.4342 38.3396 59.1455 39.163C59.8316 38.5256 60.7016 37.8813 61.7486 37.1717C63.4122 36.044 65.1164 34.9423 66.8593 33.8675ZM70.5585 49.0471C74.6659 49.4882 79.0516 49.9282 83.16 50.3263C84.9764 49.4032 86.3267 48.7339 87.0332 48.4134C87.3262 48.2808 87.6665 48.5765 87.4112 48.7286C86.8325 49.073 85.7621 49.6625 84.3167 50.438C92.3444 51.2106 99.0773 51.8039 100.192 51.9011C100.985 51.4726 101.799 51.0259 102.516 50.6239C101.422 50.0097 100.819 48.9963 100.994 47.9233L76.6225 45.0355C76.587 45.0934 76.5498 45.1507 76.5109 45.2072C76.7536 45.2614 76.9029 45.4915 76.6821 45.6341C75.077 46.6706 73.3059 47.6016 71.5414 48.5292L71.5332 48.5335C71.2078 48.7046 70.8823 48.8757 70.5585 49.0471ZM69.0947 48.8886C65.8964 48.539 62.9151 48.1918 60.428 47.8672C61.0387 47.5382 61.5795 47.2494 62.0555 46.9952C64.3985 45.7442 65.1707 45.3319 64.9856 45.0778C64.8073 44.8321 64.5558 44.2683 64.4877 43.8818C64.1459 41.9581 65.2098 40.3642 67.408 39.5081C68.3935 39.1245 69.4175 39.0779 70.3719 39.3726C70.8028 39.506 71.2039 39.7059 71.5502 39.9496C71.1755 39.8964 70.9617 39.8777 70.5607 39.8817C67.9808 39.8908 66.0475 41.2893 65.5155 43.5319C65.2721 44.5563 65.6842 45.5536 66.6445 46.2686C67.8008 47.1286 70.0269 47.4153 71.8149 47.4275C71.7567 47.4588 71.6985 47.4901 71.6403 47.5214C71.5839 47.5517 71.5276 47.582 71.4713 47.6123L71.2151 47.7503L71.2089 47.7536C70.8649 47.9389 70.5211 48.1241 70.1764 48.308C70.0362 48.3828 69.6651 48.582 69.0947 48.8886ZM72.28 40.6266C71.7653 40.4478 71.1805 40.3561 70.5651 40.3571C68.3751 40.3609 66.7208 41.6087 66.2472 43.6032C66.0364 44.4902 66.3856 45.3483 67.2046 45.9577C69.6218 47.756 73.8546 46.1084 74.2149 43.5172C74.3273 42.712 74.1157 42.0483 73.6852 41.5406C73.5711 41.6029 73.4603 41.6633 73.3529 41.7218C73.1317 41.8426 72.7846 41.7594 72.7469 41.5712C72.6817 41.2469 72.5179 40.9245 72.28 40.6266ZM75.1293 40.7519C76.5289 41.3781 77.2122 42.3649 77.0968 43.6417L101.511 46.5343C102.413 44.9826 104.159 44.2714 105.912 44.2953C108.509 42.8288 112.307 43.7036 113.32 45.5303C118.361 42.7793 123.477 39.9439 125.794 38.5919C124.817 37.8529 124.479 36.8214 124.724 35.9358L100.31 32.8208C99.4131 34.1946 97.5457 35.1776 95.5672 35.1776C93.7264 35.1776 91.3573 34.8929 90.1417 33.9892C89.1569 33.2567 88.7359 32.2342 88.9845 31.1846C89.5306 28.8853 91.512 27.4511 94.1556 27.4421C94.6694 27.4389 94.8737 27.469 95.5334 27.5661C95.7627 27.5998 96.0472 27.6417 96.4188 27.6931C96.4571 27.6983 96.4951 27.7037 96.5329 27.7093C95.9924 27.2406 95.23 26.86 94.3996 26.6753C93.5561 26.487 92.2509 26.4148 90.8311 27.1378C87.387 28.8915 88.0127 31.102 88.3622 32.3364C88.4759 32.7381 88.5604 33.0365 88.4657 33.182C88.2233 33.554 80.0926 38.0376 75.1293 40.7519ZM98.1299 28.0655C97.9599 28.0115 97.7822 27.9615 97.597 27.9156C96.9922 27.1529 95.8826 26.5019 94.643 26.2261C93.2024 25.9052 91.6849 26.0973 90.3731 26.7651C86.5103 28.7322 87.283 31.269 87.6546 32.4886C87.7204 32.7035 87.7946 32.9477 87.8013 32.9771C87.4136 33.3465 80.3218 37.2967 73.3551 41.0982C72.9718 40.1703 71.9575 39.3355 70.6937 38.9448C66.7658 37.7293 61.9787 41.448 64.2265 45.1434C63.7625 45.473 62.2352 46.2864 60.9402 46.976C60.4119 47.2574 59.9223 47.5181 59.5593 47.717C56.73 42.2348 57.825 40.5235 62.2865 37.4983C71.5276 31.2345 82.0243 25.7764 93.4865 21.2757C95.4561 20.5028 96.2618 20.5931 97.53 21.5167C99.4478 22.9138 100.802 24.6065 101.457 26.42L98.1299 28.0655ZM98.8175 28.3237C100.318 28.987 101.025 30.0517 100.841 31.4351L125.297 34.5668C125.972 33.4944 127.086 32.7687 128.473 32.5111C129.818 31.5404 131.629 30.9534 133.581 31.3875C134.911 31.6837 136.084 32.4328 136.591 33.2776L139.849 31.6666C133.678 30.4073 111.193 27.028 101.924 26.7875L98.8175 28.3237ZM121.31 22.6885C123.305 20.0731 126.651 17.5137 130.805 15.6278C131.5 15.3125 132.229 15.0074 132.949 14.7063C136.457 13.2383 139.734 11.8671 137.591 9.8893C137.337 9.65495 137.041 9.45197 136.716 9.27751C135.952 10.0551 134.768 10.6151 133.586 11.1739C133.511 11.2095 133.436 11.2451 133.361 11.2807C126.945 14.3239 121.803 18.2606 118.267 22.2557C119.303 22.3973 120.321 22.5421 121.31 22.6885ZM117.532 22.1562C121.334 17.7897 126.581 13.9083 132.921 10.8985L133.047 10.8389L133.185 10.7736C134.402 10.1987 135.689 9.59102 136.339 8.7375C136.855 8.06011 136.872 7.23061 136.397 6.43962C135.845 6.49761 135.067 6.14014 135.305 5.7974C135.378 5.69283 135.458 5.59062 135.545 5.4908C133.932 4.19639 131.553 4.02431 129.053 4.48779C128.969 4.58793 128.797 4.72167 128.567 4.90007C127.658 5.60674 125.847 7.01424 124.987 9.80944C124.969 9.86743 124.852 9.84461 124.842 9.79708C124.472 8.0121 126.058 6.20336 127.767 4.77633C127.392 4.87426 127.003 4.98787 126.612 5.11194C125.039 6.40539 123.139 7.9023 121.049 9.3298C120.387 10.6091 120.235 11.6452 120.134 12.3318C120.077 12.7173 120.037 12.9926 119.931 13.1389C119.902 13.1807 119.807 13.1736 119.774 13.1389C119.479 12.8299 119.49 11.8616 119.513 11.515C119.541 11.0611 119.626 10.6185 119.761 10.1845C118.206 11.1875 116.766 12.2766 115.458 13.4374C114.92 14.9135 114.885 15.7606 114.831 17.0589C114.821 17.3116 114.809 17.582 114.794 17.8768C114.792 17.9115 114.716 17.9181 114.7 17.8848C114.191 16.7844 114.194 15.5851 114.373 14.4466C113.936 14.8726 113.516 15.3074 113.114 15.7501C113.635 17.6566 113.554 19.6141 112.71 21.5506C114.331 21.7406 115.95 21.9443 117.532 22.1562ZM111.979 21.466C115.433 13.733 106.094 5.47861 94.9003 1.90428C91.8971 0.945008 88.6232 0.472977 85.435 0.472977C72.4353 0.472977 63.5146 8.141 70.2675 18.1682C72.8875 22.0606 75.7532 23.9519 80.4961 26.3903C84.5488 24.4188 88.7552 22.5761 93.0996 20.8702C94.6827 20.2487 95.1764 20.2583 96.4587 20.2835C96.5415 20.2851 96.6277 20.2868 96.7176 20.2884C100.857 20.3611 106.405 20.8275 111.979 21.466ZM79.8809 26.6911C77.8186 25.6207 75.6971 24.3925 74.3398 23.3753C73.6389 22.8496 73.3548 22.5911 73.2111 22.4603C73.1211 22.3784 73.0861 22.3465 73.0382 22.3305C73.0078 22.3202 72.9721 22.3164 72.9137 22.3102C72.8817 22.3068 72.8425 22.3026 72.7941 22.2962L72.7288 22.2877C70.6106 22.0113 67.5284 21.6091 65.3688 21.0741C65.1411 21.2213 64.884 21.3547 64.6324 21.4854C64.09 21.7669 63.5726 22.0355 63.428 22.4008C63.2512 22.8472 63.6996 23.3083 64.2219 23.5669C64.8412 23.8735 65.6381 24.0147 66.409 24.1511C67.2334 24.2971 67.9294 24.4185 68.5196 24.5213C71.3781 25.0197 71.7531 25.085 72.2008 25.4251C72.7549 25.8467 72.6796 26.3871 72.6088 26.8941C72.5791 27.1073 72.5502 27.3147 72.5692 27.5048C72.6515 28.3122 73.6966 28.9583 74.8751 29.2599C76.5157 28.3814 78.1846 27.525 79.8809 26.6911ZM119.266 9.8313C116.844 11.3898 114.703 13.1498 112.897 15.0558C112.194 13.0565 110.842 11.1237 109.028 9.34203C112.246 5.88817 117.517 1.83946 123.589 1.16313C126.447 0.844635 128.133 1.98835 127.812 3.03414C127.698 3.40825 127.329 3.73862 126.896 4.10132C124.905 5.76508 122.238 7.91941 119.266 9.8313ZM70.4347 25.3566C71.563 25.5567 71.981 25.734 71.9129 26.5341C71.1543 25.971 70.709 25.6598 70.4705 25.4932C70.2914 25.3681 70.229 25.3245 70.2382 25.3169C70.2432 25.3129 70.2685 25.3191 70.3074 25.3287C70.3412 25.337 70.3851 25.3478 70.4347 25.3566ZM63.724 21.3517L63.6018 21.2845C62.4028 20.6253 58.3683 18.4072 57.9995 17.6144C57.7539 17.0882 58.2504 16.5059 58.7675 16.0063C59.1419 15.6445 59.5341 15.2899 59.9417 14.9429L61.13 15.3731C60.7356 15.8242 60.6069 16.3267 60.8022 16.7811C61.0797 17.4267 61.8965 17.8421 62.7437 18.1858C62.0341 19.0044 62.5417 20.1966 64.6333 20.8673C64.4906 20.9486 64.3316 21.0311 64.1692 21.1152C64.0203 21.1924 63.8684 21.2712 63.724 21.3517ZM61.7789 15.6079C62.1587 15.7455 62.4731 15.8586 62.7343 15.9525C63.8069 16.3382 63.9814 16.4009 64.1028 16.5126C64.4111 16.7971 64.0011 17.1212 63.4838 17.5301C63.3781 17.6137 63.2674 17.7012 63.158 17.7922C62.4055 17.488 61.7271 17.1476 61.5155 16.6547C61.3623 16.2977 61.4999 15.9264 61.7789 15.6079ZM57.5697 13.205C57.0732 12.7339 56.9422 12.0052 57.583 11.6016C57.9258 11.3852 58.4251 11.2904 58.9519 11.1904C59.1539 11.152 59.36 11.1129 59.5629 11.0659C60.473 10.8548 61.3194 10.3628 61.1596 9.7401C61.0576 9.34242 60.6005 9.10028 60.1749 8.87482C59.9518 8.75668 59.7374 8.64311 59.5873 8.51415C59.0613 8.06161 59.3676 7.36236 59.9521 6.97399C60.6678 6.4984 61.678 6.32572 62.6354 6.16208C63.7889 5.96491 64.8656 5.78086 65.2578 5.09585C65.4177 4.81688 65.3954 4.55035 65.3741 4.29668C65.3599 4.12688 65.3461 3.96245 65.388 3.80429C65.7942 2.24844 70.7151 2.47899 73.1515 2.78845C64.5675 7.54918 66.2655 15.8185 72.4516 21.7653L72.2374 21.7373C70.0669 21.4544 65.3672 20.8419 63.9844 20.0183C63.3836 19.6609 62.9567 19.0339 63.3045 18.5281C63.4444 18.3241 63.7198 18.1035 64.0073 17.8732C64.8205 17.2218 65.7303 16.493 63.9423 15.8447C63.1742 15.5662 62.5044 15.3258 61.9181 15.1155L61.9171 15.1151C59.0209 14.076 58.1643 13.7686 57.5711 13.2045L57.5697 13.205ZM139.151 5.14859C139.187 5.11248 139.225 5.07275 139.23 5.05299C139.248 4.98216 138.895 4.84669 138.762 4.79582C138.568 4.72167 138.34 4.58809 138.217 4.42124C137.279 4.75922 136.506 5.28497 136.04 5.90864C136.108 5.93906 136.209 5.96901 136.263 5.97139C136.999 5.8958 137.53 5.8418 137.916 5.80261C138.829 5.7097 138.924 5.70003 138.983 5.68332C138.97 5.68195 138.965 5.65794 138.962 5.63921L138.961 5.63673C138.926 5.4347 138.96 5.34106 139.148 5.15234L139.151 5.14859ZM33.7013 22.3945C37.9035 23.841 42.2876 25.1132 46.7634 26.1851C46.9435 25.7539 47.133 25.3241 47.3317 24.896C42.9728 23.5795 38.7112 22.0833 34.6373 20.4384C34.3746 20.7778 34.1637 21.0489 33.9946 21.2661C33.3451 22.1009 33.314 22.1409 33.341 22.2077C33.3703 22.2801 33.5893 22.3558 33.6979 22.3933L33.7013 22.3945ZM47.6389 24.2503C47.6087 24.3123 47.5787 24.3743 47.5489 24.4363C46.8149 24.2142 46.0837 23.9869 45.3559 23.7545C44.7914 23.2791 44.2483 22.7943 43.7289 22.3004L45.3892 21.4043C46.063 22.3403 46.8405 23.2439 47.7139 24.1083C47.6876 24.1541 47.6627 24.2015 47.6389 24.2503ZM36.0436 25.1746L46.3789 27.1449C46.1406 27.7658 45.9215 28.3895 45.7216 29.0157C42.5827 28.4498 39.4508 27.8251 36.3684 27.1497C36.2766 26.9738 36.1708 26.8122 36.0495 26.6606C35.9711 26.5622 35.7972 26.5123 35.6307 26.5389L35.4051 26.5755C35.5353 26.0944 35.7484 25.6257 36.0436 25.1746ZM44.3085 29.2455C44.6321 29.3074 45.0343 29.3842 45.5762 29.4827C45.4731 29.8227 45.3756 30.1635 45.2838 30.5049C41.3166 30.2149 37.316 29.8957 33.3704 29.5546C34.2797 29.3492 35.1809 29.141 36.0465 28.9356C36.4172 28.8482 36.6325 28.7327 36.7102 28.5473C38.1075 28.6489 39.1752 28.7239 40.0086 28.7824C42.0264 28.924 42.6711 28.9693 43.2976 29.0641C43.5918 29.1086 43.882 29.1641 44.3085 29.2455ZM39.4744 30.5376C41.7003 30.7163 43.8542 30.8847 45.1596 30.9808C45.1291 31.1015 45.0993 31.2223 45.0701 31.3432C42.1462 31.4238 39.2184 31.6039 36.3225 31.881L39.4744 30.5376ZM34.0422 32.6159C34.1848 32.5443 39.3301 31.9974 44.958 31.8245C44.8295 32.3954 44.7169 32.9679 44.6201 33.5417C42.6347 33.6458 41.042 33.7303 39.7621 33.7982L39.7365 33.7995L39.7312 33.7998C34.7999 34.0614 34.5397 34.0752 34.3243 34.0186C34.3124 34.0154 34.3005 34.012 34.288 34.0085C33.5504 33.7984 33.9223 32.6758 34.0422 32.6159ZM42.4058 34.1323L44.5429 34.0215C44.5078 34.2507 44.4753 34.48 44.4453 34.7095C41.3595 35.5947 38.311 36.5675 35.3422 37.6138L35.0647 37.4365L42.4058 34.1323ZM33.09 38.99C33.1624 38.9049 38.5647 36.9421 44.3793 35.2506C44.318 35.7917 44.2708 36.3336 44.2378 36.8761C40.7651 38.1053 37.204 39.2552 33.6072 40.3086C33.5147 40.088 33.4303 39.8925 33.3576 39.724C33.1678 39.2843 33.0573 39.0285 33.09 38.99ZM50.7782 19.0043C50.8598 19.7441 50.995 20.9694 51.462 22.6164C50.8215 22.812 50.1857 23.0139 49.555 23.2219C48.8492 21.7092 48.3156 20.1633 47.9608 18.5998C48.5183 18.5066 48.9541 18.4331 49.2959 18.3755C50.4586 18.1794 50.5316 18.1671 50.5963 18.1877C50.6915 18.2181 50.7223 18.4972 50.7782 19.0043ZM35.2068 34.5011C33.4718 35.8345 31.7034 37.1565 29.9225 38.4485L29.0125 38.0236C30.4997 36.7729 32.0223 35.508 33.5546 34.2502C34.0148 34.5653 34.633 34.5319 35.103 34.5066L35.1736 34.5028L35.2068 34.5011ZM34.5409 32.064C34.4919 32.0693 34.4444 32.0744 34.3983 32.0793C33.7796 32.1448 33.4281 32.1821 33.2491 32.613L28.7099 34.5425C28.3681 34.6884 28.0506 34.7445 27.9567 34.6756C27.9159 34.6467 27.8911 34.5823 27.8648 34.5141L27.8605 34.5032C27.8224 34.4047 27.7792 34.2931 27.6681 34.1884C27.5586 34.0851 27.4168 34.0154 27.3097 33.9627C27.2323 33.9246 27.173 33.8954 27.1569 33.8689L27.1586 33.8646C27.1798 33.8144 27.2742 33.7769 31.4916 32.1038C32.6787 31.6328 34.1926 31.0322 36.1235 30.2652L38.3461 30.4468L34.5409 32.064ZM35.994 28.4246C35.9037 28.514 28.4761 30.1925 22.3558 31.3609C22.1686 30.7349 22.1183 29.7613 22.2337 29.6672C22.3639 29.5626 28.9799 28.1114 35.5161 27.0475C35.829 27.5119 36.0606 28.3605 35.994 28.4246ZM102.66 50.041C104.928 51.7281 108.903 50.1808 109.242 47.7445H109.24C109.504 45.8488 107.853 44.7726 105.815 44.7759C104.245 44.7788 102.968 45.4633 102.253 46.6222L102.933 46.7026C103.932 45.2722 106.205 45.1971 107.365 46.0085C109.094 47.2169 107.703 49.7705 105.01 49.7705C103.701 49.7705 102.599 49.0603 102.497 48.1011L101.726 48.0098C101.613 48.7785 101.946 49.5105 102.66 50.041ZM105.895 47.7788C105.784 48.1662 105.204 48.4224 104.603 48.3506L103.255 48.1909C103.406 48.8635 104.202 49.3056 105.018 49.2952C107.032 49.2885 108.132 47.2459 106.822 46.3304C106.017 45.768 104.485 45.8051 103.69 46.7924L105.005 46.9483C105.608 47.0196 106.006 47.3918 105.895 47.7788ZM90.704 33.6788C93.1893 35.5284 97.5472 33.8361 97.9186 31.1689C98.2108 29.0764 96.3737 27.9141 94.1615 27.9179C91.9071 27.9217 90.2046 29.2047 89.7177 31.2564C89.5017 32.1686 89.8605 33.0518 90.704 33.6788ZM126.38 38.2988C128.71 40.0324 132.805 38.4538 133.155 35.9372C133.428 33.9764 131.714 32.8788 129.628 32.8826C128.067 32.8854 126.787 33.5428 126.039 34.6618L126.763 34.7545C127.824 33.4031 130.053 33.3489 131.213 34.1589C132.982 35.3948 131.56 38.0107 128.801 38.0107C127.394 38.0107 126.203 37.2022 126.223 36.1269L125.453 36.0285C125.253 36.8841 125.59 37.7113 126.38 38.2988ZM130.186 35.9192C130.081 36.2586 129.617 36.4934 129.099 36.4934L126.966 36.221C127.014 36.9141 127.705 37.5249 128.809 37.5349C129.992 37.5454 131.102 36.7373 131.232 35.8022C131.489 33.9711 128.665 33.5804 127.526 34.8515L129.315 35.0806C129.916 35.1576 130.306 35.5332 130.186 35.9192ZM98.0842 21.2025C100.085 22.6599 101.497 24.4259 102.178 26.3178C111.886 26.6083 134.201 30.047 140 31.2002C138.619 29.0302 136.157 26.3906 133.316 25.4779C128.959 24.0784 109.029 21.0637 97.4294 20.7756C97.6683 20.9097 97.8859 21.058 98.0842 21.2025Z" fill="#47663B"/>
<path d="M14.0983 69.049L14.0996 69.0482L14.1093 69.0425C16.1897 67.8025 18.2702 66.5623 20.3623 65.332C23.3293 63.5872 29.482 60.0317 35.6009 56.4957C43.3934 51.9927 51.131 47.5213 52.1647 46.8615C52.5065 46.6433 52.0078 46.349 51.6497 46.5306C47.4494 48.6569 13.5576 68.7465 11.0701 70.2482C7.32191 72.5114 3.59514 74.7955 0.0155883 77.1689C-0.0317642 77.2003 0.0392645 77.2441 0.0888365 77.216C4.8489 74.5611 9.47487 71.8047 14.0983 69.049Z" fill="#47663B"/>
<path d="M27.7329 82.8837L27.7356 82.8823C28.2155 82.633 28.695 82.384 29.1767 82.1379C29.8318 81.8031 36.0036 78.7657 43.9456 74.8571L43.9507 74.8546L43.9547 74.8526L43.9561 74.8519C59.3708 67.2656 81.4457 56.4015 82.8063 55.6418C83.0904 55.4831 82.7234 55.186 82.4067 55.3096C73.9735 58.5986 30.183 80.7546 23.4138 84.942C23.3724 84.9677 23.4279 85.0167 23.4767 84.9943C24.9404 84.3342 26.3378 83.6083 27.7319 82.8842L27.7329 82.8837Z" fill="#47663B"/>
<path fill-rule="evenodd" clip-rule="evenodd" d="M27.2416 36.0026C27.4929 36.1529 27.7438 36.3031 27.9829 36.4608C28.1086 36.544 28.1227 36.6738 28.0147 36.7674L19.546 44.1046C19.4742 44.1669 19.3625 44.2007 19.2493 44.2007L19.2336 44.2008L19.223 44.2009L19.2168 44.2008L19.2103 44.2007C19.1281 44.1988 19.0476 44.1663 18.0876 43.7783C17.7557 43.6442 17.3187 43.4676 16.7404 43.2352C16.5569 43.1615 16.511 43.0018 16.6412 42.8906C19.5497 40.4158 22.6757 37.943 25.9319 35.5401C26 35.4897 26.0969 35.4602 26.2005 35.4583C26.365 35.4583 26.4039 35.4828 26.6901 35.6634C26.8119 35.7402 26.9784 35.8453 27.2186 35.9888L27.2416 36.0026ZM17.4758 42.9704L19.1553 43.6454L27.2304 36.6495C27.0647 36.546 26.8992 36.4473 26.7312 36.3471C26.5675 36.2495 26.4012 36.1503 26.2301 36.0439C23.1685 38.3114 20.2267 40.6392 17.4758 42.9704Z" fill="#47663B"/>
<path fill-rule="evenodd" clip-rule="evenodd" d="M29.1845 40.6958C28.5527 40.5741 27.8831 40.5485 27.4325 40.5485C27.286 40.5485 27.1528 40.6041 27.0936 40.6906C26.7395 41.2086 25.8467 42.4955 24.9458 43.7942C24.0172 45.1327 23.08 46.4837 22.715 47.0181C22.4457 47.4108 22.6528 47.6817 23.2788 47.7649C23.4654 47.7898 23.6391 47.8155 23.8014 47.8394C24.9149 48.0037 25.4907 48.0887 26.0163 47.319C27.357 45.3558 28.5786 43.3298 29.6477 41.2976C29.8119 40.9834 29.6307 40.7823 29.1845 40.6958ZM25.3379 47.1284C25.073 47.5158 24.959 47.504 24.5477 47.4493C23.4993 47.31 23.3979 47.2962 23.3454 47.2872C23.3714 47.2274 24.9641 44.9324 26.2251 43.1153L26.2259 43.1142C26.8985 42.145 27.4766 41.3119 27.6722 41.0267C28.1191 41.0366 28.5497 41.0766 28.9441 41.1484C27.8823 43.1663 26.6697 45.1785 25.3379 47.1284Z" fill="#47663B"/>
<path fill-rule="evenodd" clip-rule="evenodd" d="M14.1911 48.5093C15.1954 48.2517 15.506 48.172 15.6984 48.2627C15.802 48.3116 15.859 48.3915 15.8486 48.4737C15.8111 48.7769 15.7912 49.0311 15.7743 49.2458C15.7068 50.1065 15.689 50.3329 14.7884 50.5349C12.929 50.9513 4.43816 52.7577 2.49526 52.7577C1.96106 52.7577 1.71764 52.5423 1.66437 52.201L1.53637 51.3753C1.51861 51.2607 1.63107 51.1543 1.80421 51.1229C9.23718 49.7801 12.5927 48.9194 14.1911 48.5093ZM2.44125 52.2847C4.18882 52.2951 12.7936 50.4774 14.5442 50.0852C14.5663 50.0802 14.5873 50.0756 14.6072 50.0713C14.7242 50.0457 14.8036 50.0283 14.8591 49.9947C14.9759 49.924 14.9874 49.7814 15.023 49.339C15.0343 49.1973 15.0482 49.0247 15.0688 48.8141C11.3213 49.7624 7.23936 50.629 2.30289 51.526C2.31051 51.5743 2.31945 51.6403 2.32936 51.7134C2.36078 51.9453 2.40187 52.2485 2.44125 52.2847Z" fill="#47663B"/>
<path d="M147.948 52.824C146.956 52.824 146.012 52.536 145.116 51.96C144.22 51.416 143.548 50.568 143.1 49.416C142.94 49 142.828 48.552 142.764 48.072C142.732 47.592 142.716 47.128 142.716 46.68V46.056C142.716 45.832 142.732 45.624 142.764 45.432C142.828 45.24 142.956 45.144 143.148 45.144C143.212 45.144 143.244 45.176 143.244 45.24C143.244 45.432 143.228 45.624 143.196 45.816C143.196 46.008 143.196 46.2 143.196 46.392C143.196 47.896 143.564 49.048 144.3 49.848C145.068 50.616 146.012 51 147.132 51C148.252 51 149.34 50.68 150.396 50.04C151.452 49.368 152.428 48.536 153.324 47.544C153.836 47 154.412 46.184 155.052 45.096C155.724 43.976 156.412 42.728 157.116 41.352C157.852 39.944 158.588 38.504 159.324 37.032C160.06 35.528 160.764 34.088 161.436 32.712C162.108 31.304 162.716 30.072 163.26 29.016C163.772 28.024 164.46 27.24 165.324 26.664C166.188 26.088 166.924 25.688 167.532 25.464C167.308 25.464 166.828 25.48 166.092 25.512C165.388 25.544 164.636 25.576 163.836 25.608C163.036 25.64 162.396 25.672 161.916 25.704C160.7 25.768 159.468 25.912 158.22 26.136C156.972 26.36 155.868 26.664 154.908 27.048C153.948 27.432 153.26 27.928 152.844 28.536C152.556 28.952 152.412 29.432 152.412 29.976C152.412 31.064 152.892 31.848 153.852 32.328C153.916 32.392 153.948 32.424 153.948 32.424C153.948 32.52 153.868 32.616 153.708 32.712C153.548 32.776 153.388 32.792 153.228 32.76C152.972 32.6 152.652 32.344 152.268 31.992C151.916 31.608 151.58 31.208 151.26 30.792C150.972 30.376 150.78 30.024 150.684 29.736C150.524 29.256 150.444 28.872 150.444 28.584C150.444 27.816 150.732 27.192 151.308 26.712C151.884 26.2 152.636 25.816 153.564 25.56C154.492 25.272 155.484 25.08 156.54 24.984C157.596 24.856 158.62 24.776 159.612 24.744C160.604 24.712 161.452 24.696 162.156 24.696C163.788 24.696 165.244 24.696 166.524 24.696C167.836 24.664 169.036 24.648 170.124 24.648C171.244 24.648 172.316 24.664 173.34 24.696C174.396 24.728 175.5 24.776 176.652 24.84C177.484 24.872 178.044 25.032 178.332 25.32C178.652 25.608 178.812 25.96 178.812 26.376C178.812 26.92 178.636 27.512 178.284 28.152C177.932 28.792 177.612 29.384 177.324 29.928C177.196 30.184 176.988 30.376 176.7 30.504C176.412 30.6 176.3 30.504 176.364 30.216C176.428 29.928 176.492 29.624 176.556 29.304C176.62 28.952 176.652 28.616 176.652 28.296C176.652 27.72 176.54 27.208 176.316 26.76C176.092 26.28 175.708 25.944 175.164 25.752C174.844 25.624 174.46 25.544 174.012 25.512C173.564 25.448 173.084 25.416 172.572 25.416C171.612 25.416 170.652 25.512 169.692 25.704C168.732 25.896 167.98 26.2 167.436 26.616C166.764 27.128 166.076 27.96 165.372 29.112C164.7 30.264 164.06 31.496 163.452 32.808C162.844 34.12 162.3 35.272 161.82 36.264C161.788 36.328 161.772 36.424 161.772 36.552C161.772 36.712 161.916 36.792 162.204 36.792C162.652 36.792 163.276 36.792 164.076 36.792C164.908 36.792 165.772 36.808 166.668 36.84C167.564 36.84 168.332 36.84 168.972 36.84C169.676 36.84 170.236 36.888 170.652 36.984C171.068 37.048 171.276 37.256 171.276 37.608C171.276 37.736 171.196 37.992 171.036 38.376C170.812 38.888 170.556 39.336 170.268 39.72C170.012 40.072 169.804 40.44 169.644 40.824C169.612 40.952 169.468 41.064 169.212 41.16C168.956 41.256 168.86 41.24 168.924 41.112C169.052 40.824 169.18 40.472 169.308 40.056C169.468 39.608 169.548 39.224 169.548 38.904C169.548 38.392 169.324 38.136 168.876 38.136H161.388C161.1 38.136 160.876 38.264 160.716 38.52C159.788 40.376 158.78 42.36 157.692 44.472C156.636 46.584 155.404 48.392 153.996 49.896C153.196 50.76 152.268 51.464 151.212 52.008C150.156 52.552 149.068 52.824 147.948 52.824ZM181.117 51.096C180.605 51.096 180.141 51 179.725 50.808C179.341 50.584 179.149 50.12 179.149 49.416C179.149 48.296 179.437 47.176 180.013 46.056C180.589 44.904 181.181 43.896 181.789 43.032C182.333 42.296 182.941 41.608 183.613 40.968C184.317 40.296 185.069 39.72 185.869 39.24C186.381 38.92 187.069 38.584 187.933 38.232C188.829 37.848 189.581 37.656 190.189 37.656C190.701 37.656 191.149 37.8 191.533 38.088C191.917 38.344 192.109 38.824 192.109 39.528C192.109 40.616 191.821 41.736 191.245 42.888C190.701 44.008 190.125 45 189.517 45.864C189.229 46.248 188.941 46.616 188.653 46.968C188.365 47.288 188.045 47.624 187.693 47.976C188.877 47.976 189.965 47.64 190.957 46.968C191.949 46.264 192.813 45.416 193.549 44.424L193.645 44.328C193.741 44.328 193.789 44.424 193.789 44.616C193.789 44.84 193.725 45.048 193.597 45.24C192.957 46.136 192.157 46.936 191.197 47.64C190.237 48.312 189.149 48.648 187.933 48.648C187.805 48.648 187.677 48.648 187.549 48.648C187.421 48.648 187.293 48.632 187.165 48.6C185.373 50.264 183.357 51.096 181.117 51.096ZM182.365 50.28C182.813 50.28 183.293 50.12 183.805 49.8C184.349 49.48 184.765 49.176 185.053 48.888C185.597 48.344 186.093 47.768 186.541 47.16C186.989 46.52 187.405 45.88 187.789 45.24C188.237 44.472 188.685 43.56 189.133 42.504C189.581 41.448 189.805 40.456 189.805 39.528C189.805 38.792 189.549 38.424 189.037 38.424C188.621 38.424 188.109 38.6 187.501 38.952C186.925 39.304 186.493 39.624 186.205 39.912C185.117 41.032 184.205 42.248 183.469 43.56C183.053 44.296 182.605 45.16 182.125 46.152C181.645 47.144 181.405 48.056 181.405 48.888C181.405 49.016 181.405 49.144 181.405 49.272C181.437 49.368 181.469 49.48 181.501 49.608C181.629 50.056 181.917 50.28 182.365 50.28ZM203.42 51.096C202.908 51.096 202.444 51 202.028 50.808C201.644 50.584 201.452 50.12 201.452 49.416C201.452 48.296 201.74 47.176 202.316 46.056C202.892 44.904 203.484 43.896 204.092 43.032C204.636 42.296 205.244 41.608 205.916 40.968C206.62 40.296 207.372 39.72 208.172 39.24C208.684 38.92 209.372 38.584 210.236 38.232C211.132 37.848 211.884 37.656 212.492 37.656C213.004 37.656 213.452 37.8 213.836 38.088C214.22 38.344 214.412 38.824 214.412 39.528C214.412 40.616 214.124 41.736 213.548 42.888C213.004 44.008 212.428 45 211.82 45.864C211.532 46.248 211.244 46.616 210.956 46.968C210.668 47.288 210.348 47.624 209.996 47.976C211.18 47.976 212.268 47.64 213.26 46.968C214.252 46.264 215.116 45.416 215.852 44.424L215.948 44.328C216.044 44.328 216.092 44.424 216.092 44.616C216.092 44.84 216.028 45.048 215.9 45.24C215.26 46.136 214.46 46.936 213.5 47.64C212.54 48.312 211.452 48.648 210.236 48.648C210.108 48.648 209.98 48.648 209.852 48.648C209.724 48.648 209.596 48.632 209.468 48.6C207.676 50.264 205.66 51.096 203.42 51.096ZM204.668 50.28C205.116 50.28 205.596 50.12 206.108 49.8C206.652 49.48 207.068 49.176 207.356 48.888C207.9 48.344 208.396 47.768 208.844 47.16C209.292 46.52 209.708 45.88 210.092 45.24C210.54 44.472 210.988 43.56 211.436 42.504C211.884 41.448 212.108 40.456 212.108 39.528C212.108 38.792 211.852 38.424 211.34 38.424C210.924 38.424 210.412 38.6 209.804 38.952C209.228 39.304 208.796 39.624 208.508 39.912C207.42 41.032 206.508 42.248 205.772 43.56C205.356 44.296 204.908 45.16 204.428 46.152C203.948 47.144 203.708 48.056 203.708 48.888C203.708 49.016 203.708 49.144 203.708 49.272C203.74 49.368 203.772 49.48 203.804 49.608C203.932 50.056 204.22 50.28 204.668 50.28ZM231.483 51.144C231.163 51.144 230.891 51.08 230.667 50.952C230.443 50.824 230.331 50.584 230.331 50.232C230.331 49.784 230.443 49.272 230.667 48.696C230.891 48.12 231.147 47.56 231.435 47.016C231.723 46.44 231.979 45.976 232.203 45.624C231.083 46.808 229.915 47.928 228.699 48.984C228.091 49.496 227.419 49.976 226.683 50.424C225.947 50.872 225.163 51.096 224.331 51.096C224.011 51.096 223.787 51 223.659 50.808C223.531 50.584 223.467 50.328 223.467 50.04C223.467 49.88 223.483 49.768 223.515 49.704C223.675 48.456 224.075 47.16 224.715 45.816C225.355 44.472 226.139 43.208 227.067 42.024C227.995 40.84 228.939 39.88 229.899 39.144C230.635 38.6 231.339 38.264 232.011 38.136C232.683 37.976 233.419 37.896 234.219 37.896H235.803C236.315 37.032 236.843 36.072 237.387 35.016C237.963 33.928 238.523 32.856 239.067 31.8C239.643 30.744 240.171 29.816 240.651 29.016C241.963 26.776 243.403 24.984 244.971 23.64C246.571 22.296 248.347 21.624 250.299 21.624C250.715 21.624 251.099 21.752 251.451 22.008C251.803 22.232 251.963 22.584 251.931 23.064L251.835 24.792C251.835 24.824 251.803 24.872 251.739 24.936C251.675 24.968 251.627 24.984 251.595 24.984C251.563 24.984 251.515 24.952 251.451 24.888C251.355 24.312 251.067 23.88 250.587 23.592C250.107 23.272 249.515 23.112 248.811 23.112C248.587 23.112 248.331 23.128 248.043 23.16C247.787 23.192 247.531 23.256 247.275 23.352C246.379 23.672 245.531 24.328 244.731 25.32C243.931 26.28 243.067 27.56 242.139 29.16C241.819 29.768 241.403 30.568 240.891 31.56C240.379 32.52 239.835 33.56 239.259 34.68C238.715 35.8 238.187 36.888 237.675 37.944C237.195 39 236.779 39.896 236.427 40.632C236.267 41.016 235.995 41.608 235.611 42.408C235.227 43.176 234.811 44.024 234.363 44.952C233.947 45.848 233.579 46.68 233.259 47.448C232.971 48.216 232.827 48.76 232.827 49.08C232.827 49.528 233.019 49.752 233.403 49.752C233.787 49.752 234.299 49.528 234.939 49.08C235.579 48.6 236.235 48.024 236.907 47.352C237.611 46.648 238.235 45.976 238.779 45.336C239.355 44.696 239.755 44.216 239.979 43.896C240.075 43.992 240.123 44.104 240.123 44.232C240.123 44.456 240.027 44.68 239.835 44.904C239.675 45.128 239.531 45.32 239.403 45.48C238.827 46.248 238.107 47.08 237.243 47.976C236.411 48.84 235.499 49.592 234.507 50.232C233.515 50.84 232.507 51.144 231.483 51.144ZM226.299 49.464C226.683 49.464 227.211 49.192 227.883 48.648C228.587 48.072 229.339 47.368 230.139 46.536C230.939 45.672 231.691 44.776 232.395 43.848C233.099 42.888 233.675 42.024 234.123 41.256C234.603 40.456 234.843 39.848 234.843 39.432C234.843 39.08 234.731 38.84 234.507 38.712C234.315 38.584 234.059 38.52 233.739 38.52C233.227 38.52 232.667 38.712 232.059 39.096C231.483 39.448 231.019 39.8 230.667 40.152C230.283 40.504 229.819 41.064 229.275 41.832C228.763 42.568 228.251 43.384 227.739 44.28C227.227 45.176 226.795 46.04 226.443 46.872C226.091 47.704 225.915 48.376 225.915 48.888C225.915 49.272 226.043 49.464 226.299 49.464ZM258.649 32.664C258.201 32.664 257.881 32.52 257.689 32.232C257.561 32.072 257.497 31.864 257.497 31.608C257.497 31.096 257.737 30.68 258.217 30.36C258.569 30.168 258.889 30.072 259.177 30.072C259.657 30.072 259.993 30.216 260.185 30.504C260.313 30.664 260.377 30.872 260.377 31.128C260.377 31.64 260.121 32.056 259.609 32.376C259.321 32.568 259.001 32.664 258.649 32.664ZM250.297 51.144C249.977 51.144 249.705 51.08 249.481 50.952C249.289 50.824 249.193 50.584 249.193 50.232C249.193 49.784 249.305 49.256 249.529 48.648C249.785 48.04 250.057 47.432 250.345 46.824C250.665 46.216 250.905 45.72 251.065 45.336C251.289 44.888 251.561 44.312 251.881 43.608C252.233 42.872 252.553 42.184 252.841 41.544C253.161 40.872 253.385 40.408 253.513 40.152C253.065 40.632 252.521 41.24 251.881 41.976C251.273 42.68 250.697 43.368 250.153 44.04C249.609 44.712 249.193 45.24 248.905 45.624C248.809 45.752 248.729 45.816 248.665 45.816C248.601 45.816 248.569 45.736 248.569 45.576C248.569 45.32 248.649 45.08 248.809 44.856C249.417 44.088 250.089 43.224 250.825 42.264C251.593 41.304 252.281 40.424 252.889 39.624C253.497 38.792 253.881 38.248 254.041 37.992C254.393 37.928 254.905 37.832 255.577 37.704C256.281 37.576 256.761 37.4 257.017 37.176C257.113 37.08 257.209 37.032 257.305 37.032C257.369 37.032 257.401 37.096 257.401 37.224C257.433 37.32 257.401 37.432 257.305 37.56C257.113 37.784 256.777 38.328 256.297 39.192C255.817 40.056 255.305 41.016 254.761 42.072C254.249 43.096 253.769 44.024 253.321 44.856C252.873 45.72 252.489 46.552 252.169 47.352C251.849 48.152 251.689 48.728 251.689 49.08C251.689 49.528 251.913 49.752 252.361 49.752C252.777 49.752 253.305 49.496 253.945 48.984C254.617 48.472 255.289 47.864 255.961 47.16C256.633 46.424 257.225 45.752 257.737 45.144C257.897 44.952 258.089 44.728 258.313 44.472C258.569 44.184 258.729 44.008 258.793 43.944C258.857 44.008 258.889 44.12 258.889 44.28C258.857 44.504 258.777 44.728 258.649 44.952C258.521 45.144 258.393 45.32 258.265 45.48C257.593 46.312 256.857 47.176 256.057 48.072C255.257 48.936 254.377 49.672 253.417 50.28C252.457 50.856 251.417 51.144 250.297 51.144ZM270.235 51.384C268.923 51.384 268.011 51.128 267.499 50.616C266.987 50.104 266.731 49.48 266.731 48.744C266.731 47.816 266.971 46.824 267.451 45.768C267.963 44.712 268.443 43.816 268.891 43.08C269.403 42.312 270.091 41.512 270.955 40.68C271.819 39.848 272.763 39.144 273.787 38.568C274.811 37.992 275.803 37.704 276.763 37.704C277.595 37.704 278.171 37.912 278.491 38.328C278.811 38.712 278.971 39.176 278.971 39.72C278.971 40.712 278.667 41.528 278.059 42.168C277.483 42.808 276.763 43.336 275.899 43.752C275.035 44.136 274.203 44.456 273.403 44.712C272.923 44.84 272.363 44.968 271.723 45.096C271.083 45.224 270.475 45.288 269.899 45.288C269.675 45.864 269.499 46.424 269.371 46.968C269.243 47.512 269.179 48.008 269.179 48.456C269.179 49 269.307 49.448 269.563 49.8C269.851 50.152 270.315 50.328 270.955 50.328C271.211 50.328 271.515 50.296 271.867 50.232C272.219 50.168 272.603 50.072 273.019 49.944C273.979 49.624 274.923 49.112 275.851 48.408C276.779 47.704 277.627 46.952 278.395 46.152C279.195 45.32 279.803 44.632 280.219 44.088C280.315 44.184 280.363 44.296 280.363 44.424C280.363 44.584 280.251 44.84 280.027 45.192C279.387 46.088 278.555 47.016 277.531 47.976C276.507 48.936 275.371 49.752 274.123 50.424C272.875 51.064 271.579 51.384 270.235 51.384ZM270.283 44.328C270.699 44.36 271.163 44.36 271.675 44.328C272.219 44.264 272.747 44.152 273.259 43.992C274.571 43.608 275.515 43 276.091 42.168C276.699 41.304 277.003 40.536 277.003 39.864C277.003 39.48 276.923 39.16 276.763 38.904C276.603 38.648 276.347 38.52 275.995 38.52C275.067 38.52 274.235 38.872 273.499 39.576C272.763 40.248 272.123 41.032 271.579 41.928C271.035 42.824 270.603 43.624 270.283 44.328Z" fill="#1F4529"/>
</svg>
