<svg width="288" height="158" viewBox="0 0 288 158" fill="none" xmlns="http://www.w3.org/2000/svg">
<path fill-rule="evenodd" clip-rule="evenodd" d="M134.107 43.3812C133.808 44.6443 135.125 45.6482 136.712 45.6482C139.544 45.6482 141.013 42.9591 139.192 41.6867C137.759 40.6856 134.681 40.9675 134.107 43.3812ZM139.233 43.3784C139.106 44.2906 138.014 45.1724 136.713 45.1724C135.602 45.1724 134.603 44.4442 134.839 43.4526C135.057 42.5324 135.824 41.6225 137.246 41.6225C138.397 41.6225 139.393 42.2295 139.233 43.3784Z" fill="#47663B"/>
<path d="M150.737 8.55709C151.402 8.44158 153.368 9.04291 152.995 9.25064C152.921 9.292 152.053 9.59623 150.943 9.53443C150.002 9.48262 149.93 8.77528 150.737 8.55709Z" fill="#47663B"/>
<path d="M158.704 4.98282C158.522 4.76225 157.993 4.66385 157.618 4.84972C157.444 4.93671 157.315 5.07456 157.327 5.2224C157.363 5.63026 157.761 6.21495 157.807 6.27152C157.887 6.36849 158.097 6.3547 158.181 6.27152C158.382 6.07472 158.903 5.3959 158.778 5.09643L158.704 4.98282Z" fill="#47663B"/>
<path d="M166.458 8.09416C166.581 7.91598 166.704 7.73809 167.436 7.48454C168.026 7.28014 168.696 7.61764 168.522 8.02122C168.475 8.13246 168.343 8.24987 168.183 8.30549C167.388 8.58038 167.194 8.55427 166.924 8.51804C166.783 8.4992 166.623 8.47762 166.346 8.49421C166.208 8.50276 166.176 8.39105 166.244 8.33591C166.35 8.25096 166.404 8.17253 166.458 8.09416Z" fill="#47663B"/>
<path d="M161.001 11.7794C160.8 11.6795 160.647 11.7689 159.904 12.2026C159.746 12.295 159.561 12.403 159.344 12.5281C159.113 12.6602 159.033 12.9778 159.411 13.1655C159.713 13.3153 160.175 13.2777 160.388 13.0457C160.503 12.8745 160.603 12.7283 160.689 12.603C161.12 11.9731 161.189 11.8726 161.001 11.7794Z" fill="#47663B"/>
<path d="M164.514 17.0725C164.582 16.9551 164.766 16.899 164.947 16.9593C165.021 16.9841 166.17 17.7679 166.152 18.0807C166.111 18.8118 164.751 18.7334 164.581 18.1449C164.537 18.0004 164.433 17.2103 164.514 17.0725Z" fill="#47663B"/>
<path d="M173.282 13.141C172.605 13.1091 172.189 13.2691 171.895 13.3817C171.773 13.4285 171.673 13.4671 171.584 13.4804C171.38 13.5113 171.38 13.7142 171.584 13.7451C171.584 13.7451 171.586 13.7457 171.588 13.7465L171.605 13.752L171.643 13.7648C171.803 13.8185 172.25 13.9693 172.631 14.0608C172.777 14.096 173.011 14.0936 173.262 14.0855C174.255 14.0527 174.3 13.188 173.282 13.141Z" fill="#47663B"/>
<path d="M151.861 17.2662C152.018 17.2709 152.174 17.2781 152.317 17.3185C152.658 17.3831 154.01 17.6479 153.701 17.7605C153.627 17.7876 152.297 18.1323 151.861 18.1456C151.28 18.1637 150.722 17.6949 151.395 17.3593C151.529 17.2928 151.692 17.2609 151.861 17.2662Z" fill="#47663B"/>
<path fill-rule="evenodd" clip-rule="evenodd" d="M162.823 29.2934C161.337 28.2552 158.2 28.5822 157.619 31.0303C157.311 32.3295 158.665 33.3506 160.285 33.3506C163.178 33.3506 164.69 30.5982 162.823 29.2934ZM162.882 31.027C162.669 32.5577 160.249 33.4571 158.897 32.4507C158.429 32.1028 158.23 31.6112 158.351 31.1016C158.992 28.3978 163.196 28.7814 162.882 31.027Z" fill="#47663B"/>
<path fill-rule="evenodd" clip-rule="evenodd" d="M125.721 39.5816C118.762 38.3668 115.139 37.8252 113.256 37.5436C112.394 37.4149 111.897 37.3405 111.611 37.281C106.222 39.1768 100.693 40.8786 100.364 40.8786C100.198 40.8786 100.051 40.8068 100.007 40.7027C99.8982 40.4429 99.7991 40.2183 99.7129 40.0228C99.2564 38.9878 99.1614 38.7724 99.8821 38.5042C100.473 38.2841 101.069 38.0678 101.667 37.8534C101.649 37.8414 101.631 37.8296 101.612 37.8176L101.583 37.7992C101.157 37.5273 101.186 37.2521 101.661 37.0381L107.95 34.2074L103.24 34.4498C101.28 35.9634 99.2739 37.4641 97.2548 38.9263C97.1822 38.9786 97.0809 39.0061 96.978 39.0061C96.845 39.0061 96.8243 38.9964 96.1532 38.6795L96.1515 38.6787L96.1475 38.6768C95.9311 38.5746 95.6476 38.4408 95.2719 38.2655C95.1024 38.1866 95.0699 38.034 95.1949 37.929C96.8241 36.5566 98.4992 35.1662 100.182 33.7853C100.12 33.6246 100.097 33.4449 100.107 33.2548C95.596 35.1832 95.5742 35.1832 95.1087 35.1824L95.0795 35.1823C94.8102 35.1823 94.5793 35.1191 94.404 34.9917C94.2422 34.8751 94.1883 34.736 94.1449 34.624L94.1435 34.6205C94.0807 34.456 94.0747 34.4498 93.8698 34.3438L93.8685 34.3431C93.6895 34.25 93.4458 34.1232 93.4192 33.9017C93.3822 33.5815 93.8427 33.3957 94.016 33.3257L101.96 30.1682C101.657 30.143 101.387 30.1209 101.146 30.1011L101.139 30.1006C99.8803 29.9972 99.392 29.9571 98.9535 29.8707C94.037 30.9597 89.3025 31.8995 89.0776 31.8995C88.9044 31.8995 88.7565 31.823 88.7173 31.716C88.4916 31.0938 88.4006 30.4549 88.4465 29.8165C88.4746 29.4167 88.6988 29.266 89.2167 29.1462C93.2505 28.2193 97.3191 27.4178 101.624 26.7034C101.772 26.0412 102.065 25.3985 102.5 24.7881C102.577 24.6807 102.765 24.6265 102.941 24.6593L113.56 26.6834L113.569 26.6604C110.741 25.9789 105.556 24.6048 100.353 22.8133C99.5493 22.5362 99.4287 22.2257 99.7994 21.7461C100.107 21.3474 100.346 21.0351 100.533 20.79L100.534 20.7891C101.131 20.0084 101.205 19.9116 101.321 19.8809C101.342 19.8755 101.363 19.8721 101.389 19.8675C101.49 19.8489 101.598 19.8594 101.687 19.8955C104.663 21.1068 107.742 22.2376 110.887 23.2763C110.56 22.983 110.241 22.6864 109.93 22.3864C109.826 22.2856 109.856 22.1506 110 22.0727L112.287 20.8377L112.286 20.8391C112.47 20.7402 112.76 20.7764 112.863 20.9242C113.514 21.8637 114.271 22.7714 115.125 23.6395C115.311 23.5096 115.548 23.4227 115.863 23.3935C115.106 21.7787 114.544 20.1268 114.182 18.4558C114.157 18.336 114.274 18.2234 114.455 18.1929L117.098 17.7508C117.963 17.6054 118.402 17.8578 118.452 18.4496C118.563 19.775 118.8 21.0977 119.161 22.4058C119.949 22.172 120.744 21.9475 121.545 21.7324C120.857 18.7317 121.794 15.9199 124.655 13.9851C123.083 13.0681 123.117 11.8602 124.063 11.2636C124.538 10.9638 125.156 10.8467 125.74 10.7359C125.936 10.6987 126.128 10.6623 126.31 10.62C126.931 10.4755 127.514 10.1541 127.428 9.81854C127.371 9.59668 127.054 9.4282 126.703 9.24194C126.457 9.11133 126.194 8.97199 125.993 8.79937C125.224 8.13767 125.605 7.1841 126.419 6.64409C127.285 6.06885 128.448 5.87199 129.457 5.70119C130.453 5.53255 131.3 5.38932 131.562 4.93232C131.66 4.76081 131.647 4.53001 131.633 4.29116C131.622 4.09906 131.61 3.90174 131.656 3.72586C132.184 1.70558 137.774 1.94421 140.88 2.40436C146.853 -0.560441 155.472 -0.680231 162.23 1.47836C167.383 3.12376 172.192 5.76191 175.573 8.90694C178.889 5.39818 184.239 1.38801 190.463 0.694421C191.794 0.54706 193.043 0.670653 193.984 1.04524C195.134 1.50253 195.773 2.35818 195.538 3.12588C195.402 3.57177 195.008 3.94731 194.568 4.31951C197.614 3.5461 200.776 3.45055 202.967 5.07391C203.604 4.52534 204.466 4.08516 205.449 3.81943C205.819 3.71913 206.138 4.01956 205.857 4.20447L205.858 4.20543C205.929 4.28385 206.091 4.35668 206.27 4.43725C206.721 4.64041 207.282 4.89276 206.772 5.40809C206.68 5.49921 206.68 5.50024 206.693 5.56596L206.697 5.58302C206.761 5.94667 206.499 6.1197 205.937 6.17817L204.141 6.36308C204.614 7.2135 204.592 8.10242 204.072 8.85254C205.404 9.52517 206.275 10.5995 205.948 11.6063C205.548 12.8421 203.452 13.7555 200.753 14.932C197.042 16.5495 192.19 18.6641 189.035 22.7969C194.317 23.594 198.704 24.429 200.647 25.0529C203.887 26.0935 206.62 29.1757 207.977 31.4988C208.055 31.6323 207.932 31.7673 207.746 31.8077C207.743 31.8109 207.741 31.8133 207.739 31.8156C207.707 31.8485 207.649 31.8707 203.623 33.8618C203.407 33.9678 203.099 33.8941 203.037 33.7282C202.73 32.8996 201.62 32.122 200.339 31.8367C198.954 31.5278 197.763 31.8323 196.712 32.4074C197.14 32.4099 197.33 32.4376 197.915 32.5232C198.133 32.555 198.405 32.5949 198.765 32.6444L198.763 32.6439C201.728 33.0523 203.214 34.3191 202.951 36.211C202.663 38.2807 200.179 39.7905 197.837 39.7349C196.299 39.7031 194.521 39.5279 193.321 38.918C190.395 40.644 183.661 44.3321 180.36 46.1321C180.145 46.2495 179.815 46.1749 179.758 45.999C179.273 44.4881 176.314 43.4246 173.952 44.3959C174.038 44.4115 174.123 44.4288 174.208 44.4479L174.207 44.4484C177.773 44.8159 179.249 46.1117 178.984 48.0126C178.703 50.0353 176.273 51.5046 173.994 51.45C172.906 51.4272 172.051 51.344 171.398 51.1947C170.942 51.1481 170.518 51.0495 170.135 50.9083C169.054 51.5157 167.918 52.1301 167.541 52.3332C167.475 52.3694 167.39 52.3889 167.304 52.3889C167.09 52.3889 159.51 51.7194 150.55 50.8479C138.824 57.1019 107.256 73.1873 104.54 74.4631C101.701 75.7969 135.979 57.5669 149.364 50.7321C145.222 50.3264 140.847 49.8828 136.809 49.446C122.141 57.2745 94.667 71.9352 82.5258 78.055C82.3948 78.1211 82.2069 78.0084 82.3379 77.9343C86.2571 75.7205 126.152 54.2346 135.353 49.2871C132.088 48.9275 129.1 48.5763 126.713 48.2585C126.44 48.3849 126.025 48.1924 125.964 48.0745C123.744 43.8127 123.742 41.6647 125.721 39.5816ZM134.42 33.5237C135.78 32.6933 137.163 31.8793 138.569 31.0818C132.396 28.2269 128.03 23.8864 126.497 19.5414C126.032 19.2448 125.581 18.9399 125.148 18.6246C124.033 17.8108 123.708 17.1367 125.151 15.7429C125.516 15.3907 125.897 15.0456 126.293 14.7071C125.941 14.5783 125.58 14.44 125.235 14.2817C121.68 16.6542 121.492 20.0934 122.818 23.2741C124.683 27.7522 129.105 31.2442 134.42 33.5237ZM133.859 33.8675C128.647 31.5692 124.859 28.3069 122.884 24.9776C120.127 24.5115 117.876 24.1279 116.799 23.9371C115.796 23.7598 115.601 23.8667 115.345 24.3925C113.375 28.4326 112.242 32.6233 111.98 36.8521C116.701 37.567 121.434 38.3396 126.145 39.163C126.832 38.5256 127.702 37.8813 128.749 37.1717C130.412 36.044 132.116 34.9423 133.859 33.8675ZM137.558 49.0471C141.666 49.4882 146.052 49.9282 150.16 50.3263C151.976 49.4032 153.327 48.7339 154.033 48.4134C154.326 48.2808 154.667 48.5765 154.411 48.7286C153.833 49.073 152.762 49.6625 151.317 50.438C159.344 51.2106 166.077 51.8039 167.192 51.9011C167.985 51.4726 168.799 51.0259 169.516 50.6239C168.422 50.0097 167.819 48.9963 167.994 47.9233L143.623 45.0355C143.587 45.0934 143.55 45.1507 143.511 45.2072C143.754 45.2614 143.903 45.4915 143.682 45.6341C142.077 46.6706 140.306 47.6016 138.541 48.5292L138.533 48.5335C138.208 48.7046 137.882 48.8757 137.558 49.0471ZM136.095 48.8886C132.896 48.539 129.915 48.1918 127.428 47.8672C128.039 47.5382 128.58 47.2494 129.056 46.9952C131.399 45.7442 132.171 45.3319 131.986 45.0778C131.807 44.8321 131.556 44.2683 131.488 43.8818C131.146 41.9581 132.21 40.3642 134.408 39.5081C135.394 39.1245 136.418 39.0779 137.372 39.3726C137.803 39.506 138.204 39.7059 138.55 39.9496C138.176 39.8964 137.962 39.8777 137.561 39.8817C134.981 39.8908 133.047 41.2893 132.515 43.5319C132.272 44.5563 132.684 45.5536 133.645 46.2686C134.801 47.1286 137.027 47.4153 138.815 47.4275C138.757 47.4588 138.698 47.4901 138.64 47.5214C138.584 47.5517 138.528 47.582 138.471 47.6123L138.215 47.7503L138.209 47.7536C137.865 47.9389 137.521 48.1241 137.176 48.308C137.036 48.3828 136.665 48.582 136.095 48.8886ZM139.28 40.6266C138.765 40.4478 138.181 40.3561 137.565 40.3571C135.375 40.3609 133.721 41.6087 133.247 43.6032C133.036 44.4902 133.386 45.3483 134.205 45.9577C136.622 47.756 140.855 46.1084 141.215 43.5172C141.327 42.712 141.116 42.0483 140.685 41.5406C140.571 41.6029 140.46 41.6633 140.353 41.7218C140.132 41.8426 139.785 41.7594 139.747 41.5712C139.682 41.2469 139.518 40.9245 139.28 40.6266ZM142.129 40.7519C143.529 41.3781 144.212 42.3649 144.097 43.6417L168.511 46.5343C169.413 44.9826 171.159 44.2714 172.912 44.2953C175.509 42.8288 179.307 43.7036 180.32 45.5303C185.361 42.7793 190.477 39.9439 192.794 38.5919C191.817 37.8529 191.479 36.8214 191.724 35.9358L167.31 32.8208C166.413 34.1946 164.546 35.1776 162.567 35.1776C160.726 35.1776 158.357 34.8929 157.142 33.9892C156.157 33.2567 155.736 32.2342 155.985 31.1846C156.531 28.8853 158.512 27.4511 161.156 27.4421C161.669 27.4389 161.874 27.469 162.533 27.5661C162.763 27.5998 163.047 27.6417 163.419 27.6931C163.457 27.6983 163.495 27.7037 163.533 27.7093C162.992 27.2406 162.23 26.86 161.4 26.6753C160.556 26.487 159.251 26.4148 157.831 27.1378C154.387 28.8915 155.013 31.102 155.362 32.3364C155.476 32.7381 155.56 33.0365 155.466 33.182C155.223 33.554 147.093 38.0376 142.129 40.7519ZM165.13 28.0655C164.96 28.0115 164.782 27.9615 164.597 27.9156C163.992 27.1529 162.883 26.5019 161.643 26.2261C160.202 25.9052 158.685 26.0973 157.373 26.7651C153.51 28.7322 154.283 31.269 154.655 32.4886C154.72 32.7035 154.795 32.9477 154.801 32.9771C154.414 33.3465 147.322 37.2967 140.355 41.0982C139.972 40.1703 138.957 39.3355 137.694 38.9448C133.766 37.7293 128.979 41.448 131.227 45.1434C130.762 45.473 129.235 46.2864 127.94 46.976C127.412 47.2574 126.922 47.5181 126.559 47.717C123.73 42.2348 124.825 40.5235 129.287 37.4983C138.528 31.2345 149.024 25.7764 160.487 21.2757C162.456 20.5028 163.262 20.5931 164.53 21.5167C166.448 22.9138 167.802 24.6065 168.457 26.42L165.13 28.0655ZM165.818 28.3237C167.318 28.987 168.025 30.0517 167.841 31.4351L192.297 34.5668C192.972 33.4944 194.086 32.7687 195.473 32.5111C196.818 31.5404 198.629 30.9534 200.581 31.3875C201.911 31.6837 203.084 32.4328 203.591 33.2776L206.849 31.6666C200.678 30.4073 178.193 27.028 168.924 26.7875L165.818 28.3237ZM188.31 22.6885C190.305 20.0731 193.651 17.5137 197.805 15.6278C198.5 15.3125 199.229 15.0074 199.949 14.7063C203.457 13.2383 206.734 11.8671 204.591 9.8893C204.337 9.65495 204.041 9.45197 203.716 9.27751C202.952 10.0551 201.768 10.6151 200.586 11.1739C200.511 11.2095 200.436 11.2451 200.361 11.2807C193.945 14.3239 188.803 18.2606 185.267 22.2557C186.303 22.3973 187.321 22.5421 188.31 22.6885ZM184.532 22.1562C188.334 17.7897 193.581 13.9083 199.921 10.8985L200.047 10.8389L200.185 10.7736C201.402 10.1987 202.689 9.59102 203.339 8.7375C203.855 8.06011 203.872 7.23061 203.397 6.43962C202.845 6.49761 202.067 6.14014 202.305 5.7974C202.378 5.69283 202.458 5.59062 202.545 5.4908C200.932 4.19639 198.553 4.02431 196.053 4.48779C195.969 4.58793 195.797 4.72167 195.567 4.90007C194.658 5.60674 192.847 7.01424 191.987 9.80944C191.969 9.86743 191.852 9.84461 191.842 9.79708C191.472 8.0121 193.058 6.20336 194.767 4.77633C194.392 4.87426 194.003 4.98787 193.612 5.11194C192.039 6.40539 190.139 7.9023 188.049 9.3298C187.387 10.6091 187.235 11.6452 187.134 12.3318C187.077 12.7173 187.037 12.9926 186.931 13.1389C186.902 13.1807 186.807 13.1736 186.774 13.1389C186.479 12.8299 186.49 11.8616 186.513 11.515C186.541 11.0611 186.626 10.6185 186.761 10.1845C185.206 11.1875 183.766 12.2766 182.458 13.4374C181.92 14.9135 181.885 15.7606 181.831 17.0589C181.821 17.3116 181.809 17.582 181.794 17.8768C181.792 17.9115 181.716 17.9181 181.7 17.8848C181.191 16.7844 181.194 15.5851 181.373 14.4466C180.936 14.8726 180.516 15.3074 180.114 15.7501C180.635 17.6566 180.554 19.6141 179.71 21.5506C181.331 21.7406 182.95 21.9443 184.532 22.1562ZM178.979 21.466C182.433 13.733 173.094 5.47861 161.9 1.90428C158.897 0.945008 155.623 0.472977 152.435 0.472977C139.435 0.472977 130.515 8.141 137.268 18.1682C139.887 22.0606 142.753 23.9519 147.496 26.3903C151.549 24.4188 155.755 22.5761 160.1 20.8702C161.683 20.2487 162.176 20.2583 163.459 20.2835C163.542 20.2851 163.628 20.2868 163.718 20.2884C167.857 20.3611 173.405 20.8275 178.979 21.466ZM146.881 26.6911C144.819 25.6207 142.697 24.3925 141.34 23.3753C140.639 22.8496 140.355 22.5911 140.211 22.4603C140.121 22.3784 140.086 22.3465 140.038 22.3305C140.008 22.3202 139.972 22.3164 139.914 22.3102C139.882 22.3068 139.843 22.3026 139.794 22.2962L139.729 22.2877C137.611 22.0113 134.528 21.6091 132.369 21.0741C132.141 21.2213 131.884 21.3547 131.632 21.4854C131.09 21.7669 130.573 22.0355 130.428 22.4008C130.251 22.8472 130.7 23.3083 131.222 23.5669C131.841 23.8735 132.638 24.0147 133.409 24.1511C134.233 24.2971 134.929 24.4185 135.52 24.5213C138.378 25.0197 138.753 25.085 139.201 25.4251C139.755 25.8467 139.68 26.3871 139.609 26.8941C139.579 27.1073 139.55 27.3147 139.569 27.5048C139.651 28.3122 140.697 28.9583 141.875 29.2599C143.516 28.3814 145.185 27.525 146.881 26.6911ZM186.266 9.8313C183.844 11.3898 181.703 13.1498 179.897 15.0558C179.194 13.0565 177.842 11.1237 176.028 9.34203C179.246 5.88817 184.517 1.83946 190.589 1.16313C193.447 0.844635 195.133 1.98835 194.812 3.03414C194.698 3.40825 194.329 3.73862 193.896 4.10132C191.905 5.76508 189.238 7.91941 186.266 9.8313ZM137.435 25.3566C138.563 25.5567 138.981 25.734 138.913 26.5341C138.154 25.971 137.709 25.6598 137.471 25.4932C137.291 25.3681 137.229 25.3245 137.238 25.3169C137.243 25.3129 137.269 25.3191 137.307 25.3287C137.341 25.337 137.385 25.3478 137.435 25.3566ZM130.724 21.3517L130.602 21.2845C129.403 20.6253 125.368 18.4072 125 17.6144C124.754 17.0882 125.25 16.5059 125.768 16.0063C126.142 15.6445 126.534 15.2899 126.942 14.9429L128.13 15.3731C127.736 15.8242 127.607 16.3267 127.802 16.7811C128.08 17.4267 128.896 17.8421 129.744 18.1858C129.034 19.0044 129.542 20.1966 131.633 20.8673C131.491 20.9486 131.332 21.0311 131.169 21.1152C131.02 21.1924 130.868 21.2712 130.724 21.3517ZM128.779 15.6079C129.159 15.7455 129.473 15.8586 129.734 15.9525C130.807 16.3382 130.981 16.4009 131.103 16.5126C131.411 16.7971 131.001 17.1212 130.484 17.5301C130.378 17.6137 130.267 17.7012 130.158 17.7922C129.406 17.488 128.727 17.1476 128.515 16.6547C128.362 16.2977 128.5 15.9264 128.779 15.6079ZM124.57 13.205C124.073 12.7339 123.942 12.0052 124.583 11.6016C124.926 11.3852 125.425 11.2904 125.952 11.1904C126.154 11.152 126.36 11.1129 126.563 11.0659C127.473 10.8548 128.319 10.3628 128.16 9.7401C128.058 9.34242 127.6 9.10028 127.175 8.87482C126.952 8.75668 126.737 8.64311 126.587 8.51415C126.061 8.06161 126.368 7.36236 126.952 6.97399C127.668 6.4984 128.678 6.32572 129.635 6.16208C130.789 5.96491 131.866 5.78086 132.258 5.09585C132.418 4.81688 132.395 4.55035 132.374 4.29668C132.36 4.12688 132.346 3.96245 132.388 3.80429C132.794 2.24844 137.715 2.47899 140.151 2.78845C131.567 7.54918 133.265 15.8185 139.452 21.7653L139.237 21.7373C137.067 21.4544 132.367 20.8419 130.984 20.0183C130.384 19.6609 129.957 19.0339 130.304 18.5281C130.444 18.3241 130.72 18.1035 131.007 17.8732C131.821 17.2218 132.73 16.493 130.942 15.8447C130.174 15.5662 129.504 15.3258 128.918 15.1155L128.917 15.1151C126.021 14.076 125.164 13.7686 124.571 13.2045L124.57 13.205ZM206.151 5.14859C206.187 5.11248 206.225 5.07275 206.23 5.05299C206.248 4.98216 205.895 4.84669 205.762 4.79582C205.568 4.72167 205.34 4.58809 205.217 4.42124C204.279 4.75922 203.506 5.28497 203.04 5.90864C203.108 5.93906 203.209 5.96901 203.263 5.97139C203.999 5.8958 204.53 5.8418 204.916 5.80261C205.829 5.7097 205.924 5.70003 205.983 5.68332C205.97 5.68195 205.965 5.65794 205.962 5.63921L205.961 5.63673C205.926 5.4347 205.96 5.34106 206.148 5.15234L206.151 5.14859ZM100.701 22.3945C104.903 23.841 109.288 25.1132 113.763 26.1851C113.944 25.7539 114.133 25.3241 114.332 24.896C109.973 23.5795 105.711 22.0833 101.637 20.4384C101.375 20.7778 101.164 21.0489 100.995 21.2661C100.345 22.1009 100.314 22.1409 100.341 22.2077C100.37 22.2801 100.589 22.3558 100.698 22.3933L100.701 22.3945ZM114.639 24.2503C114.609 24.3123 114.579 24.3743 114.549 24.4363C113.815 24.2142 113.084 23.9869 112.356 23.7545C111.791 23.2791 111.248 22.7943 110.729 22.3004L112.389 21.4043C113.063 22.3403 113.841 23.2439 114.714 24.1083C114.688 24.1541 114.663 24.2015 114.639 24.2503ZM103.044 25.1746L113.379 27.1449C113.141 27.7658 112.921 28.3895 112.722 29.0157C109.583 28.4498 106.451 27.8251 103.368 27.1497C103.277 26.9738 103.171 26.8122 103.05 26.6606C102.971 26.5622 102.797 26.5123 102.631 26.5389L102.405 26.5755C102.535 26.0944 102.748 25.6257 103.044 25.1746ZM111.308 29.2455C111.632 29.3074 112.034 29.3842 112.576 29.4827C112.473 29.8227 112.376 30.1635 112.284 30.5049C108.317 30.2149 104.316 29.8957 100.37 29.5546C101.28 29.3492 102.181 29.141 103.047 28.9356C103.417 28.8482 103.633 28.7327 103.71 28.5473C105.108 28.6489 106.175 28.7239 107.009 28.7824C109.026 28.924 109.671 28.9693 110.298 29.0641C110.592 29.1086 110.882 29.1641 111.308 29.2455ZM106.474 30.5376C108.7 30.7163 110.854 30.8847 112.16 30.9808C112.129 31.1015 112.099 31.2223 112.07 31.3432C109.146 31.4238 106.218 31.6039 103.323 31.881L106.474 30.5376ZM101.042 32.6159C101.185 32.5443 106.33 31.9974 111.958 31.8245C111.83 32.3954 111.717 32.9679 111.62 33.5417C109.635 33.6458 108.042 33.7303 106.762 33.7982L106.736 33.7995L106.731 33.7998C101.8 34.0614 101.54 34.0752 101.324 34.0186C101.312 34.0154 101.301 34.012 101.288 34.0085C100.55 33.7984 100.922 32.6758 101.042 32.6159ZM109.406 34.1323L111.543 34.0215C111.508 34.2507 111.475 34.48 111.445 34.7095C108.36 35.5947 105.311 36.5675 102.342 37.6138L102.065 37.4365L109.406 34.1323ZM100.09 38.99C100.162 38.9049 105.565 36.9421 111.379 35.2506C111.318 35.7917 111.271 36.3336 111.238 36.8761C107.765 38.1053 104.204 39.2552 100.607 40.3086C100.515 40.088 100.43 39.8925 100.358 39.724C100.168 39.2843 100.057 39.0285 100.09 38.99ZM117.778 19.0043C117.86 19.7441 117.995 20.9694 118.462 22.6164C117.821 22.812 117.186 23.0139 116.555 23.2219C115.849 21.7092 115.316 20.1633 114.961 18.5998C115.518 18.5066 115.954 18.4331 116.296 18.3755C117.459 18.1794 117.532 18.1671 117.596 18.1877C117.691 18.2181 117.722 18.4972 117.778 19.0043ZM102.207 34.5011C100.472 35.8345 98.7034 37.1565 96.9225 38.4485L96.0125 38.0236C97.4997 36.7729 99.0223 35.508 100.555 34.2502C101.015 34.5653 101.633 34.5319 102.103 34.5066L102.174 34.5028L102.207 34.5011ZM101.541 32.064C101.492 32.0693 101.444 32.0744 101.398 32.0793C100.78 32.1448 100.428 32.1821 100.249 32.613L95.7099 34.5425C95.3681 34.6884 95.0506 34.7445 94.9567 34.6756C94.9159 34.6467 94.8911 34.5823 94.8648 34.5141L94.8605 34.5032C94.8224 34.4047 94.7792 34.2931 94.6681 34.1884C94.5586 34.0851 94.4168 34.0154 94.3097 33.9627C94.2323 33.9246 94.173 33.8954 94.1569 33.8689L94.1586 33.8646C94.1798 33.8144 94.2742 33.7769 98.4916 32.1038C99.6787 31.6328 101.193 31.0322 103.123 30.2652L105.346 30.4468L101.541 32.064ZM102.994 28.4246C102.904 28.514 95.4761 30.1925 89.3558 31.3609C89.1686 30.7349 89.1183 29.7613 89.2337 29.6672C89.3639 29.5626 95.9799 28.1114 102.516 27.0475C102.829 27.5119 103.061 28.3605 102.994 28.4246ZM169.66 50.041C171.928 51.7281 175.903 50.1808 176.242 47.7445H176.24C176.504 45.8488 174.853 44.7726 172.815 44.7759C171.245 44.7788 169.968 45.4633 169.253 46.6222L169.933 46.7026C170.932 45.2722 173.205 45.1971 174.365 46.0085C176.094 47.2169 174.703 49.7705 172.01 49.7705C170.701 49.7705 169.599 49.0603 169.497 48.1011L168.726 48.0098C168.613 48.7785 168.946 49.5105 169.66 50.041ZM172.895 47.7788C172.784 48.1662 172.204 48.4224 171.603 48.3506L170.255 48.1909C170.406 48.8635 171.202 49.3056 172.018 49.2952C174.032 49.2885 175.132 47.2459 173.822 46.3304C173.017 45.768 171.485 45.8051 170.69 46.7924L172.005 46.9483C172.608 47.0196 173.006 47.3918 172.895 47.7788ZM157.704 33.6788C160.189 35.5284 164.547 33.8361 164.919 31.1689C165.211 29.0764 163.374 27.9141 161.161 27.9179C158.907 27.9217 157.205 29.2047 156.718 31.2564C156.502 32.1686 156.861 33.0518 157.704 33.6788ZM193.38 38.2988C195.71 40.0324 199.805 38.4538 200.155 35.9372C200.428 33.9764 198.714 32.8788 196.628 32.8826C195.067 32.8854 193.787 33.5428 193.039 34.6618L193.763 34.7545C194.824 33.4031 197.053 33.3489 198.213 34.1589C199.982 35.3948 198.56 38.0107 195.801 38.0107C194.394 38.0107 193.203 37.2022 193.223 36.1269L192.453 36.0285C192.253 36.8841 192.59 37.7113 193.38 38.2988ZM197.186 35.9192C197.081 36.2586 196.617 36.4934 196.099 36.4934L193.966 36.221C194.014 36.9141 194.705 37.5249 195.809 37.5349C196.992 37.5454 198.102 36.7373 198.232 35.8022C198.489 33.9711 195.665 33.5804 194.526 34.8515L196.315 35.0806C196.916 35.1576 197.306 35.5332 197.186 35.9192ZM165.084 21.2025C167.085 22.6599 168.497 24.4259 169.178 26.3178C178.886 26.6083 201.201 30.047 207 31.2002C205.619 29.0302 203.157 26.3906 200.316 25.4779C195.959 24.0784 176.029 21.0637 164.429 20.7756C164.668 20.9097 164.886 21.058 165.084 21.2025Z" fill="#47663B"/>
<path d="M81.0983 69.049L81.0996 69.0482L81.1093 69.0425C83.1897 67.8025 85.2702 66.5623 87.3623 65.332C90.3293 63.5872 96.482 60.0317 102.601 56.4957C110.393 51.9927 118.131 47.5213 119.165 46.8615C119.506 46.6433 119.008 46.349 118.65 46.5306C114.449 48.6569 80.5576 68.7465 78.0701 70.2482C74.3219 72.5114 70.5951 74.7955 67.0156 77.1689C66.9682 77.2003 67.0393 77.2441 67.0888 77.216C71.8489 74.5611 76.4749 71.8047 81.0983 69.049Z" fill="#47663B"/>
<path d="M94.7329 82.8837L94.7356 82.8823C95.2155 82.633 95.695 82.384 96.1767 82.1379C96.8318 81.8031 103.004 78.7657 110.946 74.8571L110.951 74.8546L110.955 74.8526L110.956 74.8519C126.371 67.2656 148.446 56.4015 149.806 55.6418C150.09 55.4831 149.723 55.186 149.407 55.3096C140.974 58.5986 97.183 80.7546 90.4138 84.942C90.3724 84.9677 90.4279 85.0167 90.4767 84.9943C91.9404 84.3342 93.3378 83.6083 94.7319 82.8842L94.7329 82.8837Z" fill="#47663B"/>
<path fill-rule="evenodd" clip-rule="evenodd" d="M94.2416 36.0026C94.4929 36.1529 94.7438 36.3031 94.9829 36.4608C95.1086 36.544 95.1227 36.6738 95.0147 36.7674L86.546 44.1046C86.4742 44.1669 86.3625 44.2007 86.2493 44.2007L86.2336 44.2008L86.223 44.2009L86.2168 44.2008L86.2103 44.2007C86.1281 44.1988 86.0476 44.1663 85.0876 43.7783C84.7557 43.6442 84.3187 43.4676 83.7404 43.2352C83.5569 43.1615 83.511 43.0018 83.6412 42.8906C86.5497 40.4158 89.6757 37.943 92.9319 35.5401C93 35.4897 93.0969 35.4602 93.2005 35.4583C93.365 35.4583 93.4039 35.4828 93.6901 35.6634C93.8119 35.7402 93.9784 35.8453 94.2186 35.9888L94.2416 36.0026ZM84.4758 42.9704L86.1553 43.6454L94.2304 36.6495C94.0647 36.546 93.8992 36.4473 93.7312 36.3471C93.5675 36.2495 93.4012 36.1503 93.2301 36.0439C90.1685 38.3114 87.2267 40.6392 84.4758 42.9704Z" fill="#47663B"/>
<path fill-rule="evenodd" clip-rule="evenodd" d="M96.1845 40.6958C95.5527 40.5741 94.8831 40.5485 94.4325 40.5485C94.286 40.5485 94.1528 40.6041 94.0936 40.6906C93.7395 41.2086 92.8467 42.4955 91.9458 43.7942C91.0172 45.1327 90.08 46.4837 89.715 47.0181C89.4457 47.4108 89.6528 47.6817 90.2788 47.7649C90.4654 47.7898 90.6391 47.8155 90.8014 47.8394C91.9149 48.0037 92.4907 48.0887 93.0163 47.319C94.357 45.3558 95.5786 43.3298 96.6477 41.2976C96.8119 40.9834 96.6307 40.7823 96.1845 40.6958ZM92.3379 47.1284C92.073 47.5158 91.959 47.504 91.5477 47.4493C90.4993 47.31 90.3979 47.2962 90.3454 47.2872C90.3714 47.2274 91.9641 44.9324 93.2251 43.1153L93.2259 43.1142C93.8985 42.145 94.4766 41.3119 94.6722 41.0267C95.1191 41.0366 95.5497 41.0766 95.9441 41.1484C94.8823 43.1663 93.6697 45.1785 92.3379 47.1284Z" fill="#47663B"/>
<path fill-rule="evenodd" clip-rule="evenodd" d="M81.1911 48.5093C82.1954 48.2517 82.506 48.172 82.6984 48.2627C82.802 48.3116 82.859 48.3915 82.8486 48.4737C82.8111 48.7769 82.7912 49.0311 82.7743 49.2458C82.7068 50.1065 82.689 50.3329 81.7884 50.5349C79.929 50.9513 71.4382 52.7577 69.4953 52.7577C68.9611 52.7577 68.7176 52.5423 68.6644 52.201L68.5364 51.3753C68.5186 51.2607 68.6311 51.1543 68.8042 51.1229C76.2372 49.7801 79.5927 48.9194 81.1911 48.5093ZM69.4412 52.2847C71.1888 52.2951 79.7936 50.4774 81.5442 50.0852C81.5663 50.0802 81.5873 50.0756 81.6072 50.0713C81.7242 50.0457 81.8036 50.0283 81.8591 49.9947C81.9759 49.924 81.9874 49.7814 82.023 49.339C82.0343 49.1973 82.0482 49.0247 82.0688 48.8141C78.3213 49.7624 74.2394 50.629 69.3029 51.526C69.3105 51.5743 69.3195 51.6403 69.3294 51.7134C69.3608 51.9453 69.4019 52.2485 69.4412 52.2847Z" fill="#47663B"/>
<path d="M76.9477 121.824C75.9557 121.824 75.0117 121.536 74.1157 120.96C73.2197 120.416 72.5477 119.568 72.0997 118.416C71.9397 118 71.8277 117.552 71.7637 117.072C71.7317 116.592 71.7157 116.128 71.7157 115.68V115.056C71.7157 114.832 71.7317 114.624 71.7637 114.432C71.8277 114.24 71.9557 114.144 72.1477 114.144C72.2117 114.144 72.2437 114.176 72.2437 114.24C72.2437 114.432 72.2277 114.624 72.1957 114.816C72.1957 115.008 72.1957 115.2 72.1957 115.392C72.1957 116.896 72.5637 118.048 73.2997 118.848C74.0677 119.616 75.0117 120 76.1317 120C77.2517 120 78.3397 119.68 79.3957 119.04C80.4517 118.368 81.4277 117.536 82.3237 116.544C82.8357 116 83.4117 115.184 84.0517 114.096C84.7237 112.976 85.4117 111.728 86.1157 110.352C86.8517 108.944 87.5877 107.504 88.3237 106.032C89.0597 104.528 89.7637 103.088 90.4357 101.712C91.1077 100.304 91.7157 99.072 92.2597 98.016C92.7717 97.024 93.4597 96.24 94.3237 95.664C95.1877 95.088 95.9237 94.688 96.5317 94.464C96.3077 94.464 95.8277 94.48 95.0917 94.512C94.3877 94.544 93.6357 94.576 92.8357 94.608C92.0357 94.64 91.3957 94.672 90.9157 94.704C89.6997 94.768 88.4677 94.912 87.2197 95.136C85.9717 95.36 84.8677 95.664 83.9077 96.048C82.9477 96.432 82.2597 96.928 81.8437 97.536C81.5557 97.952 81.4117 98.432 81.4117 98.976C81.4117 100.064 81.8917 100.848 82.8517 101.328C82.9157 101.392 82.9477 101.424 82.9477 101.424C82.9477 101.52 82.8677 101.616 82.7077 101.712C82.5477 101.776 82.3877 101.792 82.2277 101.76C81.9717 101.6 81.6517 101.344 81.2677 100.992C80.9157 100.608 80.5797 100.208 80.2597 99.792C79.9717 99.376 79.7797 99.024 79.6837 98.736C79.5237 98.256 79.4437 97.872 79.4437 97.584C79.4437 96.816 79.7317 96.192 80.3077 95.712C80.8837 95.2 81.6357 94.816 82.5637 94.56C83.4917 94.272 84.4837 94.08 85.5397 93.984C86.5957 93.856 87.6197 93.776 88.6117 93.744C89.6037 93.712 90.4517 93.696 91.1557 93.696C92.7877 93.696 94.2437 93.696 95.5237 93.696C96.8357 93.664 98.0357 93.648 99.1237 93.648C100.244 93.648 101.316 93.664 102.34 93.696C103.396 93.728 104.5 93.776 105.652 93.84C106.484 93.872 107.044 94.032 107.332 94.32C107.652 94.608 107.812 94.96 107.812 95.376C107.812 95.92 107.636 96.512 107.284 97.152C106.932 97.792 106.612 98.384 106.324 98.928C106.196 99.184 105.988 99.376 105.7 99.504C105.412 99.6 105.3 99.504 105.364 99.216C105.428 98.928 105.492 98.624 105.556 98.304C105.62 97.952 105.652 97.616 105.652 97.296C105.652 96.72 105.54 96.208 105.316 95.76C105.092 95.28 104.708 94.944 104.164 94.752C103.844 94.624 103.46 94.544 103.012 94.512C102.564 94.448 102.084 94.416 101.572 94.416C100.612 94.416 99.6517 94.512 98.6917 94.704C97.7317 94.896 96.9797 95.2 96.4357 95.616C95.7637 96.128 95.0757 96.96 94.3717 98.112C93.6997 99.264 93.0597 100.496 92.4517 101.808C91.8437 103.12 91.2997 104.272 90.8197 105.264C90.7877 105.328 90.7717 105.424 90.7717 105.552C90.7717 105.712 90.9157 105.792 91.2037 105.792C91.6517 105.792 92.2757 105.792 93.0757 105.792C93.9077 105.792 94.7717 105.808 95.6677 105.84C96.5637 105.84 97.3317 105.84 97.9717 105.84C98.6757 105.84 99.2357 105.888 99.6517 105.984C100.068 106.048 100.276 106.256 100.276 106.608C100.276 106.736 100.196 106.992 100.036 107.376C99.8117 107.888 99.5557 108.336 99.2677 108.72C99.0117 109.072 98.8037 109.44 98.6437 109.824C98.6117 109.952 98.4677 110.064 98.2117 110.16C97.9557 110.256 97.8597 110.24 97.9237 110.112C98.0517 109.824 98.1797 109.472 98.3077 109.056C98.4677 108.608 98.5477 108.224 98.5477 107.904C98.5477 107.392 98.3237 107.136 97.8757 107.136H90.3877C90.0997 107.136 89.8757 107.264 89.7157 107.52C88.7877 109.376 87.7797 111.36 86.6917 113.472C85.6357 115.584 84.4037 117.392 82.9957 118.896C82.1957 119.76 81.2677 120.464 80.2117 121.008C79.1557 121.552 78.0677 121.824 76.9477 121.824ZM110.117 120.096C109.605 120.096 109.141 120 108.725 119.808C108.341 119.584 108.149 119.12 108.149 118.416C108.149 117.296 108.437 116.176 109.013 115.056C109.589 113.904 110.181 112.896 110.789 112.032C111.333 111.296 111.941 110.608 112.613 109.968C113.317 109.296 114.069 108.72 114.869 108.24C115.381 107.92 116.069 107.584 116.933 107.232C117.829 106.848 118.581 106.656 119.189 106.656C119.701 106.656 120.149 106.8 120.533 107.088C120.917 107.344 121.109 107.824 121.109 108.528C121.109 109.616 120.821 110.736 120.245 111.888C119.701 113.008 119.125 114 118.517 114.864C118.229 115.248 117.941 115.616 117.653 115.968C117.365 116.288 117.045 116.624 116.693 116.976C117.877 116.976 118.965 116.64 119.957 115.968C120.949 115.264 121.813 114.416 122.549 113.424L122.645 113.328C122.741 113.328 122.789 113.424 122.789 113.616C122.789 113.84 122.725 114.048 122.597 114.24C121.957 115.136 121.157 115.936 120.197 116.64C119.237 117.312 118.149 117.648 116.933 117.648C116.805 117.648 116.677 117.648 116.549 117.648C116.421 117.648 116.293 117.632 116.165 117.6C114.373 119.264 112.357 120.096 110.117 120.096ZM111.365 119.28C111.813 119.28 112.293 119.12 112.805 118.8C113.349 118.48 113.765 118.176 114.053 117.888C114.597 117.344 115.093 116.768 115.541 116.16C115.989 115.52 116.405 114.88 116.789 114.24C117.237 113.472 117.685 112.56 118.133 111.504C118.581 110.448 118.805 109.456 118.805 108.528C118.805 107.792 118.549 107.424 118.037 107.424C117.621 107.424 117.109 107.6 116.501 107.952C115.925 108.304 115.493 108.624 115.205 108.912C114.117 110.032 113.205 111.248 112.469 112.56C112.053 113.296 111.605 114.16 111.125 115.152C110.645 116.144 110.405 117.056 110.405 117.888C110.405 118.016 110.405 118.144 110.405 118.272C110.437 118.368 110.469 118.48 110.501 118.608C110.629 119.056 110.917 119.28 111.365 119.28ZM132.42 120.096C131.908 120.096 131.444 120 131.028 119.808C130.644 119.584 130.452 119.12 130.452 118.416C130.452 117.296 130.74 116.176 131.316 115.056C131.892 113.904 132.484 112.896 133.092 112.032C133.636 111.296 134.244 110.608 134.916 109.968C135.62 109.296 136.372 108.72 137.172 108.24C137.684 107.92 138.372 107.584 139.236 107.232C140.132 106.848 140.884 106.656 141.492 106.656C142.004 106.656 142.452 106.8 142.836 107.088C143.22 107.344 143.412 107.824 143.412 108.528C143.412 109.616 143.124 110.736 142.548 111.888C142.004 113.008 141.428 114 140.82 114.864C140.532 115.248 140.244 115.616 139.956 115.968C139.668 116.288 139.348 116.624 138.996 116.976C140.18 116.976 141.268 116.64 142.26 115.968C143.252 115.264 144.116 114.416 144.852 113.424L144.948 113.328C145.044 113.328 145.092 113.424 145.092 113.616C145.092 113.84 145.028 114.048 144.9 114.24C144.26 115.136 143.46 115.936 142.5 116.64C141.54 117.312 140.452 117.648 139.236 117.648C139.108 117.648 138.98 117.648 138.852 117.648C138.724 117.648 138.596 117.632 138.468 117.6C136.676 119.264 134.66 120.096 132.42 120.096ZM133.668 119.28C134.116 119.28 134.596 119.12 135.108 118.8C135.652 118.48 136.068 118.176 136.356 117.888C136.9 117.344 137.396 116.768 137.844 116.16C138.292 115.52 138.708 114.88 139.092 114.24C139.54 113.472 139.988 112.56 140.436 111.504C140.884 110.448 141.108 109.456 141.108 108.528C141.108 107.792 140.852 107.424 140.34 107.424C139.924 107.424 139.412 107.6 138.804 107.952C138.228 108.304 137.796 108.624 137.508 108.912C136.42 110.032 135.508 111.248 134.772 112.56C134.356 113.296 133.908 114.16 133.428 115.152C132.948 116.144 132.708 117.056 132.708 117.888C132.708 118.016 132.708 118.144 132.708 118.272C132.74 118.368 132.772 118.48 132.804 118.608C132.932 119.056 133.22 119.28 133.668 119.28ZM160.483 120.144C160.163 120.144 159.891 120.08 159.667 119.952C159.443 119.824 159.331 119.584 159.331 119.232C159.331 118.784 159.443 118.272 159.667 117.696C159.891 117.12 160.147 116.56 160.435 116.016C160.723 115.44 160.979 114.976 161.203 114.624C160.083 115.808 158.915 116.928 157.699 117.984C157.091 118.496 156.419 118.976 155.683 119.424C154.947 119.872 154.163 120.096 153.331 120.096C153.011 120.096 152.787 120 152.659 119.808C152.531 119.584 152.467 119.328 152.467 119.04C152.467 118.88 152.483 118.768 152.515 118.704C152.675 117.456 153.075 116.16 153.715 114.816C154.355 113.472 155.139 112.208 156.067 111.024C156.995 109.84 157.939 108.88 158.899 108.144C159.635 107.6 160.339 107.264 161.011 107.136C161.683 106.976 162.419 106.896 163.219 106.896H164.803C165.315 106.032 165.843 105.072 166.387 104.016C166.963 102.928 167.523 101.856 168.067 100.8C168.643 99.744 169.171 98.816 169.651 98.016C170.963 95.776 172.403 93.984 173.971 92.64C175.571 91.296 177.347 90.624 179.299 90.624C179.715 90.624 180.099 90.752 180.451 91.008C180.803 91.232 180.963 91.584 180.931 92.064L180.835 93.792C180.835 93.824 180.803 93.872 180.739 93.936C180.675 93.968 180.627 93.984 180.595 93.984C180.563 93.984 180.515 93.952 180.451 93.888C180.355 93.312 180.067 92.88 179.587 92.592C179.107 92.272 178.515 92.112 177.811 92.112C177.587 92.112 177.331 92.128 177.043 92.16C176.787 92.192 176.531 92.256 176.275 92.352C175.379 92.672 174.531 93.328 173.731 94.32C172.931 95.28 172.067 96.56 171.139 98.16C170.819 98.768 170.403 99.568 169.891 100.56C169.379 101.52 168.835 102.56 168.259 103.68C167.715 104.8 167.187 105.888 166.675 106.944C166.195 108 165.779 108.896 165.427 109.632C165.267 110.016 164.995 110.608 164.611 111.408C164.227 112.176 163.811 113.024 163.363 113.952C162.947 114.848 162.579 115.68 162.259 116.448C161.971 117.216 161.827 117.76 161.827 118.08C161.827 118.528 162.019 118.752 162.403 118.752C162.787 118.752 163.299 118.528 163.939 118.08C164.579 117.6 165.235 117.024 165.907 116.352C166.611 115.648 167.235 114.976 167.779 114.336C168.355 113.696 168.755 113.216 168.979 112.896C169.075 112.992 169.123 113.104 169.123 113.232C169.123 113.456 169.027 113.68 168.835 113.904C168.675 114.128 168.531 114.32 168.403 114.48C167.827 115.248 167.107 116.08 166.243 116.976C165.411 117.84 164.499 118.592 163.507 119.232C162.515 119.84 161.507 120.144 160.483 120.144ZM155.299 118.464C155.683 118.464 156.211 118.192 156.883 117.648C157.587 117.072 158.339 116.368 159.139 115.536C159.939 114.672 160.691 113.776 161.395 112.848C162.099 111.888 162.675 111.024 163.123 110.256C163.603 109.456 163.843 108.848 163.843 108.432C163.843 108.08 163.731 107.84 163.507 107.712C163.315 107.584 163.059 107.52 162.739 107.52C162.227 107.52 161.667 107.712 161.059 108.096C160.483 108.448 160.019 108.8 159.667 109.152C159.283 109.504 158.819 110.064 158.275 110.832C157.763 111.568 157.251 112.384 156.739 113.28C156.227 114.176 155.795 115.04 155.443 115.872C155.091 116.704 154.915 117.376 154.915 117.888C154.915 118.272 155.043 118.464 155.299 118.464ZM187.649 101.664C187.201 101.664 186.881 101.52 186.689 101.232C186.561 101.072 186.497 100.864 186.497 100.608C186.497 100.096 186.737 99.68 187.217 99.36C187.569 99.168 187.889 99.072 188.177 99.072C188.657 99.072 188.993 99.216 189.185 99.504C189.313 99.664 189.377 99.872 189.377 100.128C189.377 100.64 189.121 101.056 188.609 101.376C188.321 101.568 188.001 101.664 187.649 101.664ZM179.297 120.144C178.977 120.144 178.705 120.08 178.481 119.952C178.289 119.824 178.193 119.584 178.193 119.232C178.193 118.784 178.305 118.256 178.529 117.648C178.785 117.04 179.057 116.432 179.345 115.824C179.665 115.216 179.905 114.72 180.065 114.336C180.289 113.888 180.561 113.312 180.881 112.608C181.233 111.872 181.553 111.184 181.841 110.544C182.161 109.872 182.385 109.408 182.513 109.152C182.065 109.632 181.521 110.24 180.881 110.976C180.273 111.68 179.697 112.368 179.153 113.04C178.609 113.712 178.193 114.24 177.905 114.624C177.809 114.752 177.729 114.816 177.665 114.816C177.601 114.816 177.569 114.736 177.569 114.576C177.569 114.32 177.649 114.08 177.809 113.856C178.417 113.088 179.089 112.224 179.825 111.264C180.593 110.304 181.281 109.424 181.889 108.624C182.497 107.792 182.881 107.248 183.041 106.992C183.393 106.928 183.905 106.832 184.577 106.704C185.281 106.576 185.761 106.4 186.017 106.176C186.113 106.08 186.209 106.032 186.305 106.032C186.369 106.032 186.401 106.096 186.401 106.224C186.433 106.32 186.401 106.432 186.305 106.56C186.113 106.784 185.777 107.328 185.297 108.192C184.817 109.056 184.305 110.016 183.761 111.072C183.249 112.096 182.769 113.024 182.321 113.856C181.873 114.72 181.489 115.552 181.169 116.352C180.849 117.152 180.689 117.728 180.689 118.08C180.689 118.528 180.913 118.752 181.361 118.752C181.777 118.752 182.305 118.496 182.945 117.984C183.617 117.472 184.289 116.864 184.961 116.16C185.633 115.424 186.225 114.752 186.737 114.144C186.897 113.952 187.089 113.728 187.313 113.472C187.569 113.184 187.729 113.008 187.793 112.944C187.857 113.008 187.889 113.12 187.889 113.28C187.857 113.504 187.777 113.728 187.649 113.952C187.521 114.144 187.393 114.32 187.265 114.48C186.593 115.312 185.857 116.176 185.057 117.072C184.257 117.936 183.377 118.672 182.417 119.28C181.457 119.856 180.417 120.144 179.297 120.144ZM199.235 120.384C197.923 120.384 197.011 120.128 196.499 119.616C195.987 119.104 195.731 118.48 195.731 117.744C195.731 116.816 195.971 115.824 196.451 114.768C196.963 113.712 197.443 112.816 197.891 112.08C198.403 111.312 199.091 110.512 199.955 109.68C200.819 108.848 201.763 108.144 202.787 107.568C203.811 106.992 204.803 106.704 205.763 106.704C206.595 106.704 207.171 106.912 207.491 107.328C207.811 107.712 207.971 108.176 207.971 108.72C207.971 109.712 207.667 110.528 207.059 111.168C206.483 111.808 205.763 112.336 204.899 112.752C204.035 113.136 203.203 113.456 202.403 113.712C201.923 113.84 201.363 113.968 200.723 114.096C200.083 114.224 199.475 114.288 198.899 114.288C198.675 114.864 198.499 115.424 198.371 115.968C198.243 116.512 198.179 117.008 198.179 117.456C198.179 118 198.307 118.448 198.563 118.8C198.851 119.152 199.315 119.328 199.955 119.328C200.211 119.328 200.515 119.296 200.867 119.232C201.219 119.168 201.603 119.072 202.019 118.944C202.979 118.624 203.923 118.112 204.851 117.408C205.779 116.704 206.627 115.952 207.395 115.152C208.195 114.32 208.803 113.632 209.219 113.088C209.315 113.184 209.363 113.296 209.363 113.424C209.363 113.584 209.251 113.84 209.027 114.192C208.387 115.088 207.555 116.016 206.531 116.976C205.507 117.936 204.371 118.752 203.123 119.424C201.875 120.064 200.579 120.384 199.235 120.384ZM199.283 113.328C199.699 113.36 200.163 113.36 200.675 113.328C201.219 113.264 201.747 113.152 202.259 112.992C203.571 112.608 204.515 112 205.091 111.168C205.699 110.304 206.003 109.536 206.003 108.864C206.003 108.48 205.923 108.16 205.763 107.904C205.603 107.648 205.347 107.52 204.995 107.52C204.067 107.52 203.235 107.872 202.499 108.576C201.763 109.248 201.123 110.032 200.579 110.928C200.035 111.824 199.603 112.624 199.283 113.328Z" fill="#1F4529"/>
<path d="M21.3805 135.544V134.68H28.8205H36.2845V134.776C36.3005 134.84 36.4285 135.872 36.6685 137.872C36.8765 139.824 36.9965 140.856 37.0285 140.968V141.064H36.1645H35.3005L35.2525 140.656C35.1085 139.616 34.9165 138.824 34.6765 138.28C34.1805 137.272 33.2605 136.672 31.9165 136.48C31.4845 136.432 30.6765 136.408 29.4925 136.408H27.9805V139.024V141.664H28.4125C29.1485 141.664 29.6845 141.576 30.0205 141.4C30.2925 141.288 30.4925 141.112 30.6205 140.872C30.8445 140.504 30.9565 139.936 30.9565 139.168V138.856H31.8205H32.6845V142.528V146.2H31.8205H30.9565V145.888C30.9565 145.12 30.8445 144.552 30.6205 144.184C30.4925 143.944 30.2925 143.768 30.0205 143.656C29.6845 143.48 29.1485 143.392 28.4125 143.392H27.9805V146.32V149.272H29.5405C30.6765 149.272 31.3165 149.264 31.4605 149.248C33.0925 149.136 34.2445 148.608 34.9165 147.664C34.9965 147.568 35.1005 147.384 35.2285 147.112C35.5165 146.552 35.7645 145.672 35.9725 144.472C36.0045 144.152 36.0365 143.96 36.0685 143.896V143.824H36.9325H37.7965V143.896C37.7805 143.928 37.5965 145.096 37.2445 147.4C36.8925 149.72 36.7085 150.896 36.6925 150.928V151H29.0365H21.3805V150.136V149.272H22.6765H23.9725V142.84V136.408H22.6765H21.3805V135.544ZM48.7852 140.152L50.7532 140.176C52.8492 140.416 54.1852 141.208 54.7612 142.552C54.8252 142.696 54.8732 142.84 54.9052 142.984L54.9772 143.248L55.0012 146.128C55.0012 148 55.0172 148.968 55.0492 149.032C55.1772 149.16 55.5212 149.24 56.0812 149.272C56.3372 149.272 56.5212 149.304 56.6332 149.368C56.7292 149.464 56.7772 149.72 56.7772 150.136C56.7772 150.552 56.7212 150.808 56.6092 150.904C56.4492 150.968 55.9372 151 55.0732 151C54.1132 150.984 53.4812 150.928 53.1772 150.832C52.6812 150.672 52.3612 150.424 52.2172 150.088C52.1532 149.96 52.1212 149.888 52.1212 149.872C52.1212 149.856 52.0492 149.896 51.9052 149.992C51.2012 150.552 50.2572 150.92 49.0732 151.096C48.4492 151.16 47.9612 151.168 47.6092 151.12C46.1692 150.96 45.1532 150.368 44.5612 149.344C44.4172 149.104 44.3132 148.856 44.2492 148.6C44.2012 148.424 44.1772 148.2 44.1772 147.928C44.1772 147.544 44.2412 147.216 44.3692 146.944C44.5612 146.56 44.8252 146.232 45.1612 145.96C45.7212 145.528 46.4332 145.192 47.2972 144.952C48.3532 144.632 49.6092 144.44 51.0652 144.376L51.6652 144.352V143.92L51.6412 143.296V143.272C51.5452 142.6 51.2172 142.128 50.6572 141.856C50.3052 141.68 49.8492 141.592 49.2892 141.592C48.6332 141.592 48.2892 141.608 48.2572 141.64L48.3292 141.784C48.4572 142.008 48.5132 142.296 48.4972 142.648C48.4972 142.904 48.4812 143.088 48.4492 143.2C48.3532 143.488 48.2092 143.728 48.0172 143.92C47.8092 144.128 47.5612 144.28 47.2732 144.376C47.1452 144.408 46.9612 144.424 46.7212 144.424C46.4812 144.424 46.3052 144.408 46.1932 144.376C45.8892 144.28 45.6332 144.128 45.4252 143.92C45.2332 143.728 45.0892 143.488 44.9932 143.2C44.9612 143.088 44.9452 142.904 44.9452 142.648C44.9452 142.392 44.9612 142.208 44.9932 142.096C45.2332 141.216 46.0092 140.632 47.3212 140.344C47.7532 140.248 48.2412 140.184 48.7852 140.152ZM51.6652 146.944C51.6652 146.112 51.6572 145.696 51.6412 145.696C51.6252 145.696 51.5852 145.704 51.5212 145.72C50.5772 145.784 49.7532 145.952 49.0492 146.224C48.2972 146.528 47.8252 146.952 47.6332 147.496C47.5532 147.72 47.5452 148.008 47.6092 148.36C47.7692 149 48.1372 149.416 48.7132 149.608C48.7452 149.624 48.7852 149.64 48.8332 149.656C49.4252 149.752 50.0492 149.632 50.7052 149.296C50.7532 149.28 50.8012 149.256 50.8492 149.224C51.1532 149.032 51.3692 148.816 51.4972 148.576C51.5932 148.384 51.6492 148.064 51.6652 147.616V146.944ZM65.3594 135.904V135.76H66.2234H67.0874V138.04V140.344H68.6954H70.3034V141.208V142.072H68.6954H67.0874V145.336C67.1034 147.592 67.1354 148.792 67.1834 148.936C67.1834 148.952 67.2074 149 67.2554 149.08C67.3514 149.272 67.4954 149.416 67.6874 149.512C67.7674 149.544 67.8874 149.56 68.0474 149.56C68.2074 149.56 68.3114 149.544 68.3594 149.512C68.6154 149.416 68.8154 149.12 68.9594 148.624C68.9914 148.512 69.0154 148.168 69.0314 147.592V146.752H69.8954H70.7594V147.52C70.7594 148.192 70.7034 148.688 70.5914 149.008C70.4154 149.536 70.1034 149.992 69.6554 150.376C69.1274 150.776 68.5514 151.024 67.9274 151.12C67.7834 151.136 67.5354 151.144 67.1834 151.144C66.5274 151.128 65.9914 151.032 65.5754 150.856C65.0474 150.68 64.6154 150.36 64.2794 149.896C64.0234 149.544 63.8554 149.088 63.7754 148.528C63.7594 148.448 63.7514 147.336 63.7514 145.192V142.072H62.9354H62.0954V141.352V140.608H62.3114C62.8234 140.56 63.2794 140.384 63.6794 140.08C64.4954 139.44 65.0154 138.432 65.2394 137.056C65.3194 136.624 65.3594 136.24 65.3594 135.904ZM77.4378 145.672V144.208H81.1098H84.7578V145.672V147.136H81.1098H77.4378V145.672ZM97.3293 134.296C98.0013 134.232 98.6493 134.256 99.2733 134.368C100.153 134.496 100.985 134.816 101.769 135.328C101.865 135.408 101.937 135.44 101.985 135.424C102.065 135.344 102.273 135.16 102.609 134.872C103.025 134.52 103.241 134.336 103.257 134.32C103.305 134.288 103.417 134.272 103.593 134.272C103.785 134.272 103.905 134.288 103.953 134.32C104.033 134.368 104.081 134.48 104.097 134.656C104.113 134.88 104.121 135.712 104.121 137.152C104.121 138.944 104.065 139.88 103.953 139.96C103.889 139.992 103.657 140.008 103.257 140.008C102.857 140.008 102.625 139.992 102.561 139.96C102.465 139.912 102.401 139.744 102.369 139.456C102.273 138.944 102.121 138.472 101.913 138.04C101.721 137.64 101.457 137.288 101.121 136.984C100.433 136.312 99.4733 135.952 98.2413 135.904C96.9293 135.856 96.0973 136.288 95.7453 137.2C95.6653 137.424 95.6253 137.68 95.6253 137.968C95.6253 138.288 95.6813 138.568 95.7933 138.808C96.0333 139.304 96.4653 139.672 97.0893 139.912C97.2013 139.976 97.8173 140.12 98.9373 140.344C100.089 140.584 100.729 140.728 100.857 140.776C101.561 140.952 102.193 141.248 102.753 141.664C103.905 142.512 104.601 143.672 104.841 145.144C104.905 145.592 104.905 146.152 104.841 146.824C104.745 147.432 104.561 148.016 104.289 148.576C103.969 149.232 103.545 149.76 103.017 150.16C102.281 150.72 101.393 151.072 100.353 151.216C99.9533 151.28 99.3373 151.288 98.5053 151.24C98.4253 151.224 98.3613 151.216 98.3133 151.216C96.9373 151.072 95.8333 150.728 95.0013 150.184C94.9053 150.12 94.8333 150.096 94.7853 150.112C94.7053 150.192 94.4973 150.376 94.1613 150.664C93.7453 151.016 93.5293 151.2 93.5133 151.216C93.4653 151.248 93.3533 151.264 93.1773 151.264C92.9853 151.264 92.8653 151.248 92.8173 151.216C92.7373 151.168 92.6893 151.056 92.6733 150.88C92.6573 150.656 92.6493 149.832 92.6493 148.408C92.6493 146.664 92.6653 145.768 92.6973 145.72C92.7133 145.688 92.7453 145.648 92.7933 145.6C92.8733 145.552 93.1053 145.528 93.4893 145.528C93.9053 145.528 94.1453 145.544 94.2093 145.576C94.3213 145.64 94.3773 145.808 94.3773 146.08C94.4253 146.944 94.7293 147.656 95.2893 148.216C95.7053 148.632 96.2813 148.96 97.0173 149.2C97.9613 149.504 98.9053 149.608 99.8493 149.512C99.9773 149.496 100.089 149.48 100.185 149.464C100.633 149.368 101.001 149.176 101.289 148.888C101.609 148.568 101.817 148.136 101.913 147.592C102.041 146.776 101.817 146.08 101.241 145.504C101.001 145.232 100.689 145.04 100.305 144.928C100.241 144.896 99.6013 144.744 98.3853 144.472C97.2333 144.248 96.5773 144.104 96.4173 144.04C95.2333 143.704 94.3053 143.072 93.6333 142.144C92.9453 141.232 92.6173 140.208 92.6493 139.072C92.6973 137.936 93.0333 136.96 93.6573 136.144C94.2493 135.344 95.1133 134.792 96.2493 134.488C96.6333 134.392 96.9933 134.328 97.3293 134.296ZM116.641 140.152L118.609 140.176C120.705 140.416 122.041 141.208 122.617 142.552C122.681 142.696 122.729 142.84 122.761 142.984L122.833 143.248L122.857 146.128C122.857 148 122.873 148.968 122.905 149.032C123.033 149.16 123.377 149.24 123.937 149.272C124.193 149.272 124.377 149.304 124.489 149.368C124.585 149.464 124.633 149.72 124.633 150.136C124.633 150.552 124.577 150.808 124.465 150.904C124.305 150.968 123.793 151 122.929 151C121.969 150.984 121.337 150.928 121.033 150.832C120.537 150.672 120.217 150.424 120.073 150.088C120.009 149.96 119.977 149.888 119.977 149.872C119.977 149.856 119.905 149.896 119.761 149.992C119.057 150.552 118.113 150.92 116.929 151.096C116.305 151.16 115.817 151.168 115.465 151.12C114.025 150.96 113.009 150.368 112.417 149.344C112.273 149.104 112.169 148.856 112.105 148.6C112.057 148.424 112.033 148.2 112.033 147.928C112.033 147.544 112.097 147.216 112.225 146.944C112.417 146.56 112.681 146.232 113.017 145.96C113.577 145.528 114.289 145.192 115.153 144.952C116.209 144.632 117.465 144.44 118.921 144.376L119.521 144.352V143.92L119.497 143.296V143.272C119.401 142.6 119.073 142.128 118.513 141.856C118.161 141.68 117.705 141.592 117.145 141.592C116.489 141.592 116.145 141.608 116.113 141.64L116.185 141.784C116.313 142.008 116.369 142.296 116.353 142.648C116.353 142.904 116.337 143.088 116.305 143.2C116.209 143.488 116.065 143.728 115.873 143.92C115.665 144.128 115.417 144.28 115.129 144.376C115.001 144.408 114.817 144.424 114.577 144.424C114.337 144.424 114.161 144.408 114.049 144.376C113.745 144.28 113.489 144.128 113.281 143.92C113.089 143.728 112.945 143.488 112.849 143.2C112.817 143.088 112.801 142.904 112.801 142.648C112.801 142.392 112.817 142.208 112.849 142.096C113.089 141.216 113.865 140.632 115.177 140.344C115.609 140.248 116.097 140.184 116.641 140.152ZM119.521 146.944C119.521 146.112 119.513 145.696 119.497 145.696C119.481 145.696 119.441 145.704 119.377 145.72C118.433 145.784 117.609 145.952 116.905 146.224C116.153 146.528 115.681 146.952 115.489 147.496C115.409 147.72 115.401 148.008 115.465 148.36C115.625 149 115.993 149.416 116.569 149.608C116.601 149.624 116.641 149.64 116.689 149.656C117.281 149.752 117.905 149.632 118.561 149.296C118.609 149.28 118.657 149.256 118.705 149.224C119.009 149.032 119.225 148.816 119.353 148.576C119.449 148.384 119.505 148.064 119.521 147.616V146.944ZM130.048 141.208V140.344H130.264L131.752 140.392C132.6 140.408 133.512 140.408 134.488 140.392L136.168 140.344H136.384V141.208V142.072H135.856H135.328L136.408 144.52C137.128 146.2 137.488 147.032 137.488 147.016C137.504 147.048 137.536 147.016 137.584 146.92C137.648 146.792 137.992 146.016 138.616 144.592L139.72 142.072H139.192H138.664V141.208V140.344H138.832L140.128 140.392C140.864 140.408 141.544 140.408 142.168 140.392L143.248 140.344H143.392V141.208V142.072H142.504H141.616L139.72 146.392C138.616 148.952 137.968 150.416 137.776 150.784C137.696 150.912 137.568 151.008 137.392 151.072C137.232 151.12 136.848 151.128 136.24 151.096C136.144 151.096 136.08 151.088 136.048 151.072C135.872 151.008 135.744 150.912 135.664 150.784C135.472 150.416 134.824 148.952 133.72 146.392L131.848 142.072H130.936H130.048V141.208ZM154.946 140.152L156.554 140.176C157.69 140.336 158.602 140.736 159.29 141.376C160.09 142.176 160.546 143.264 160.658 144.64C160.706 145.232 160.634 145.592 160.442 145.72C160.378 145.752 159.162 145.768 156.794 145.768H153.266V146.248C153.314 147.368 153.538 148.152 153.938 148.6C153.97 148.632 154.01 148.672 154.058 148.72C154.522 149.184 155.226 149.464 156.17 149.56C156.538 149.592 156.842 149.584 157.082 149.536C157.946 149.408 158.554 148.976 158.906 148.24C158.922 148.192 158.938 148.152 158.954 148.12C159.034 147.912 159.162 147.8 159.338 147.784C159.418 147.768 159.578 147.76 159.818 147.76C160.17 147.76 160.378 147.776 160.442 147.808C160.634 147.904 160.706 148.072 160.658 148.312C160.562 148.648 160.402 148.96 160.178 149.248C159.458 150.24 158.33 150.856 156.794 151.096C156.346 151.16 155.746 151.168 154.994 151.12C154.946 151.104 154.898 151.096 154.85 151.096C152.258 150.76 150.602 149.544 149.882 147.448C149.786 147.128 149.706 146.792 149.642 146.44C149.578 145.992 149.578 145.464 149.642 144.856C149.642 144.808 149.642 144.768 149.642 144.736C149.818 143.696 150.194 142.824 150.77 142.12C150.978 141.832 151.282 141.544 151.682 141.256C152.562 140.616 153.65 140.248 154.946 140.152ZM156.026 141.64C155.786 141.592 155.482 141.584 155.114 141.616C154.394 141.744 153.89 142.104 153.602 142.696C153.442 143.032 153.338 143.52 153.29 144.16V144.376H155.522H157.778L157.754 144.256C157.594 142.768 157.018 141.896 156.026 141.64ZM166.594 145.672V144.208H170.266H173.914V145.672V147.136H170.266H166.594V145.672ZM186.486 134.296C187.158 134.232 187.806 134.256 188.43 134.368C189.31 134.496 190.142 134.816 190.926 135.328C191.022 135.408 191.094 135.44 191.142 135.424C191.222 135.344 191.43 135.16 191.766 134.872C192.182 134.52 192.398 134.336 192.414 134.32C192.462 134.288 192.574 134.272 192.75 134.272C192.942 134.272 193.062 134.288 193.11 134.32C193.19 134.368 193.238 134.48 193.254 134.656C193.27 134.88 193.278 135.712 193.278 137.152C193.278 138.944 193.222 139.88 193.11 139.96C193.046 139.992 192.814 140.008 192.414 140.008C192.014 140.008 191.782 139.992 191.718 139.96C191.622 139.912 191.558 139.744 191.526 139.456C191.43 138.944 191.278 138.472 191.07 138.04C190.878 137.64 190.614 137.288 190.278 136.984C189.59 136.312 188.63 135.952 187.398 135.904C186.086 135.856 185.254 136.288 184.902 137.2C184.822 137.424 184.782 137.68 184.782 137.968C184.782 138.288 184.838 138.568 184.95 138.808C185.19 139.304 185.622 139.672 186.246 139.912C186.358 139.976 186.974 140.12 188.094 140.344C189.246 140.584 189.886 140.728 190.014 140.776C190.718 140.952 191.35 141.248 191.91 141.664C193.062 142.512 193.758 143.672 193.998 145.144C194.062 145.592 194.062 146.152 193.998 146.824C193.902 147.432 193.718 148.016 193.446 148.576C193.126 149.232 192.702 149.76 192.174 150.16C191.438 150.72 190.55 151.072 189.51 151.216C189.11 151.28 188.494 151.288 187.662 151.24C187.582 151.224 187.518 151.216 187.47 151.216C186.094 151.072 184.99 150.728 184.158 150.184C184.062 150.12 183.99 150.096 183.942 150.112C183.862 150.192 183.654 150.376 183.318 150.664C182.902 151.016 182.686 151.2 182.67 151.216C182.622 151.248 182.51 151.264 182.334 151.264C182.142 151.264 182.022 151.248 181.974 151.216C181.894 151.168 181.846 151.056 181.83 150.88C181.814 150.656 181.806 149.832 181.806 148.408C181.806 146.664 181.822 145.768 181.854 145.72C181.87 145.688 181.902 145.648 181.95 145.6C182.03 145.552 182.262 145.528 182.646 145.528C183.062 145.528 183.302 145.544 183.366 145.576C183.478 145.64 183.534 145.808 183.534 146.08C183.582 146.944 183.886 147.656 184.446 148.216C184.862 148.632 185.438 148.96 186.174 149.2C187.118 149.504 188.062 149.608 189.006 149.512C189.134 149.496 189.246 149.48 189.342 149.464C189.79 149.368 190.158 149.176 190.446 148.888C190.766 148.568 190.974 148.136 191.07 147.592C191.198 146.776 190.974 146.08 190.398 145.504C190.158 145.232 189.846 145.04 189.462 144.928C189.398 144.896 188.758 144.744 187.542 144.472C186.39 144.248 185.734 144.104 185.574 144.04C184.39 143.704 183.462 143.072 182.79 142.144C182.102 141.232 181.774 140.208 181.806 139.072C181.854 137.936 182.19 136.96 182.814 136.144C183.406 135.344 184.27 134.792 185.406 134.488C185.79 134.392 186.15 134.328 186.486 134.296ZM203.518 134.44C205.118 134.376 205.902 134.344 205.87 134.344H206.014V138.088V141.856L206.158 141.712C206.702 141.168 207.334 140.776 208.054 140.536C208.486 140.392 208.854 140.296 209.158 140.248C209.558 140.184 210.11 140.176 210.814 140.224C210.878 140.24 210.934 140.248 210.982 140.248C212.214 140.392 213.046 140.912 213.478 141.808C213.574 142 213.662 142.296 213.742 142.696C213.774 142.872 213.798 144.016 213.814 146.128V149.272H214.654H215.47V150.136V151H215.254C215.27 151 214.718 150.984 213.598 150.952C212.638 150.936 211.678 150.936 210.718 150.952L209.038 151H208.822V150.136V149.272H209.662H210.478V146.272C210.478 144.192 210.47 143.104 210.454 143.008C210.374 142.192 210.03 141.744 209.422 141.664C209.31 141.664 209.182 141.664 209.038 141.664C208.27 141.712 207.614 142.008 207.07 142.552C206.686 142.936 206.43 143.36 206.302 143.824C206.206 144.096 206.158 144.784 206.158 145.888C206.158 146.08 206.158 146.416 206.158 146.896V149.272H206.998H207.814V150.136V151H207.598L205.918 150.952C204.958 150.936 203.998 150.936 203.038 150.952C201.918 150.984 201.366 151 201.382 151H201.166V150.136V149.272H202.006H202.822V143.032C202.822 138.872 202.806 136.752 202.774 136.672C202.726 136.512 202.622 136.408 202.462 136.36C202.238 136.296 201.91 136.264 201.478 136.264H201.166V135.4V134.536H201.238C201.158 134.536 201.918 134.504 203.518 134.44ZM225.926 140.152L227.894 140.176C229.99 140.416 231.326 141.208 231.902 142.552C231.966 142.696 232.014 142.84 232.046 142.984L232.118 143.248L232.142 146.128C232.142 148 232.158 148.968 232.19 149.032C232.318 149.16 232.662 149.24 233.222 149.272C233.478 149.272 233.662 149.304 233.774 149.368C233.87 149.464 233.918 149.72 233.918 150.136C233.918 150.552 233.862 150.808 233.75 150.904C233.59 150.968 233.078 151 232.214 151C231.254 150.984 230.622 150.928 230.318 150.832C229.822 150.672 229.502 150.424 229.358 150.088C229.294 149.96 229.262 149.888 229.262 149.872C229.262 149.856 229.19 149.896 229.046 149.992C228.342 150.552 227.398 150.92 226.214 151.096C225.59 151.16 225.102 151.168 224.75 151.12C223.31 150.96 222.294 150.368 221.702 149.344C221.558 149.104 221.454 148.856 221.39 148.6C221.342 148.424 221.318 148.2 221.318 147.928C221.318 147.544 221.382 147.216 221.51 146.944C221.702 146.56 221.966 146.232 222.302 145.96C222.862 145.528 223.574 145.192 224.438 144.952C225.494 144.632 226.75 144.44 228.206 144.376L228.806 144.352V143.92L228.782 143.296V143.272C228.686 142.6 228.358 142.128 227.798 141.856C227.446 141.68 226.99 141.592 226.43 141.592C225.774 141.592 225.43 141.608 225.398 141.64L225.47 141.784C225.598 142.008 225.654 142.296 225.638 142.648C225.638 142.904 225.622 143.088 225.59 143.2C225.494 143.488 225.35 143.728 225.158 143.92C224.95 144.128 224.702 144.28 224.414 144.376C224.286 144.408 224.102 144.424 223.862 144.424C223.622 144.424 223.446 144.408 223.334 144.376C223.03 144.28 222.774 144.128 222.566 143.92C222.374 143.728 222.23 143.488 222.134 143.2C222.102 143.088 222.086 142.904 222.086 142.648C222.086 142.392 222.102 142.208 222.134 142.096C222.374 141.216 223.15 140.632 224.462 140.344C224.894 140.248 225.382 140.184 225.926 140.152ZM228.806 146.944C228.806 146.112 228.798 145.696 228.782 145.696C228.766 145.696 228.726 145.704 228.662 145.72C227.718 145.784 226.894 145.952 226.19 146.224C225.438 146.528 224.966 146.952 224.774 147.496C224.694 147.72 224.686 148.008 224.75 148.36C224.91 149 225.278 149.416 225.854 149.608C225.886 149.624 225.926 149.64 225.974 149.656C226.566 149.752 227.19 149.632 227.846 149.296C227.894 149.28 227.942 149.256 227.99 149.224C228.294 149.032 228.51 148.816 228.638 148.576C228.734 148.384 228.79 148.064 228.806 147.616V146.944ZM241.54 140.296C243.044 140.232 243.78 140.2 243.748 140.2H243.892V140.824L243.916 141.448L243.988 141.328C244.292 140.88 244.7 140.56 245.212 140.368C245.996 140.08 246.86 140.128 247.804 140.512C248.012 140.576 248.196 140.664 248.356 140.776C248.9 141.144 249.22 141.6 249.316 142.144C249.38 142.432 249.364 142.704 249.268 142.96C249.14 143.456 248.852 143.816 248.404 144.04C248.132 144.152 247.86 144.208 247.588 144.208C247.284 144.208 247.012 144.152 246.772 144.04C246.308 143.816 246.004 143.456 245.86 142.96C245.844 142.88 245.836 142.712 245.836 142.456C245.836 142.2 245.852 142.016 245.884 141.904C245.948 141.76 245.964 141.688 245.932 141.688C245.884 141.64 245.74 141.688 245.5 141.832C245.26 141.944 245.044 142.136 244.852 142.408C244.548 142.888 244.332 143.592 244.204 144.52C244.188 144.68 244.172 145.528 244.156 147.064V149.272H245.188H246.244V150.136V151H245.98L244.156 150.952C243.1 150.936 242.1 150.936 241.156 150.952C240.084 150.984 239.54 151 239.524 151H239.308V150.136V149.272H240.148H240.964V145.96C240.964 143.752 240.948 142.608 240.916 142.528C240.868 142.368 240.764 142.264 240.604 142.216C240.38 142.152 240.052 142.12 239.62 142.12H239.308V141.256V140.392H239.38L241.54 140.296ZM261.019 140.152L262.627 140.176C263.763 140.336 264.675 140.736 265.363 141.376C266.163 142.176 266.619 143.264 266.731 144.64C266.779 145.232 266.707 145.592 266.515 145.72C266.451 145.752 265.235 145.768 262.867 145.768H259.339V146.248C259.387 147.368 259.611 148.152 260.011 148.6C260.043 148.632 260.083 148.672 260.131 148.72C260.595 149.184 261.299 149.464 262.243 149.56C262.611 149.592 262.915 149.584 263.155 149.536C264.019 149.408 264.627 148.976 264.979 148.24C264.995 148.192 265.011 148.152 265.027 148.12C265.107 147.912 265.235 147.8 265.411 147.784C265.491 147.768 265.651 147.76 265.891 147.76C266.243 147.76 266.451 147.776 266.515 147.808C266.707 147.904 266.779 148.072 266.731 148.312C266.635 148.648 266.475 148.96 266.251 149.248C265.531 150.24 264.403 150.856 262.867 151.096C262.419 151.16 261.819 151.168 261.067 151.12C261.019 151.104 260.971 151.096 260.923 151.096C258.331 150.76 256.675 149.544 255.955 147.448C255.859 147.128 255.779 146.792 255.715 146.44C255.651 145.992 255.651 145.464 255.715 144.856C255.715 144.808 255.715 144.768 255.715 144.736C255.891 143.696 256.267 142.824 256.843 142.12C257.051 141.832 257.355 141.544 257.755 141.256C258.635 140.616 259.723 140.248 261.019 140.152ZM262.099 141.64C261.859 141.592 261.555 141.584 261.187 141.616C260.467 141.744 259.963 142.104 259.675 142.696C259.515 143.032 259.411 143.52 259.363 144.16V144.376H261.595H263.851L263.827 144.256C263.667 142.768 263.091 141.896 262.099 141.64Z" fill="#A5B68D"/>
</svg>
