<svg width="100" height="100" viewBox="0 0 71 71" fill="none" xmlns="http://www.w3.org/2000/svg">
<path d="M46.87 16.13C45.03 14.29 42.59 13.28 39.98 13.28C37.37 13.28 34.93 14.29 33.1 16.13C29.31 19.92 29.31 26.11 33.1 29.9C34.94 31.74 37.38 32.75 39.98 32.75C42.58 32.75 45.03 31.74 46.87 29.9C50.67 26.1 50.67 19.93 46.87 16.13ZM45.92 28.95C44.34 30.53 42.24 31.41 40 31.41C37.76 31.41 35.66 30.53 34.08 28.95C30.81 25.68 30.81 20.36 34.08 17.09C35.66 15.51 37.76 14.63 40 14.63C42.24 14.63 44.34 15.51 45.92 17.09C49.19 20.36 49.19 25.68 45.92 28.95Z" fill="#CCCCCC"/>
<path d="M62.9 41.01L54.81 32.92C54.06 32.17 53.01 31.81 51.97 31.93L50.83 30.79C54.57 25.58 54.11 18.27 49.43 13.58C46.91 11.06 43.56 9.67 39.99 9.67C36.42 9.67 33.07 11.06 30.55 13.58C25.35 18.78 25.35 27.25 30.55 32.46C33.15 35.06 36.57 36.36 39.99 36.36C42.72 36.36 45.44 35.51 47.76 33.86L48.9 35C48.78 36.05 49.13 37.09 49.89 37.84L57.98 45.93C58.64 46.59 59.52 46.95 60.45 46.95C61.38 46.95 62.26 46.59 62.92 45.93C64.26 44.58 64.26 42.37 62.9 41.01ZM31.5 31.49C29.23 29.22 27.99 26.22 27.99 23.01C27.99 19.8 29.24 16.8 31.5 14.53C33.77 12.26 36.78 11.02 39.98 11.02C43.18 11.02 46.19 12.27 48.46 14.53C50.73 16.79 51.97 19.8 51.97 23.01C51.97 26.22 50.72 29.22 48.46 31.49C43.79 36.17 36.18 36.17 31.5 31.49ZM61.94 44.98C61.11 45.81 59.76 45.81 58.93 44.98L50.85 36.89C50.34 36.38 50.13 35.63 50.28 34.91C50.33 34.68 50.26 34.45 50.1 34.29L48.81 33C49.02 32.82 49.23 32.65 49.41 32.45C49.6 32.25 49.78 32.04 49.96 31.85L51.24 33.13C51.4 33.29 51.64 33.36 51.86 33.31C52.58 33.15 53.31 33.36 53.84 33.88L61.93 41.97C62.34 42.38 62.55 42.91 62.55 43.48C62.57 44.05 62.35 44.57 61.94 44.98Z" fill="#CCCCCC"/>
<path d="M21.31 42.36L27.32 35.22L33.33 42.36C33.46 42.51 33.65 42.6 33.84 42.6H51.1C51.47 42.6 51.78 42.29 51.78 41.92C51.78 41.55 51.47 41.24 51.1 41.24H34.15L28.77 34.84H29.41C29.78 34.84 30.09 34.53 30.09 34.16C30.09 33.79 29.78 33.48 29.41 33.48H13.78C13.58 33.48 13.39 33.57 13.27 33.72L6.74999 41.48C6.57999 41.68 6.53999 41.96 6.64999 42.2C6.75999 42.43 6.99999 42.59 7.25999 42.59H20.8C20.99 42.6 21.18 42.51 21.31 42.36ZM8.70999 41.25L14.09 34.85H25.86L20.48 41.25H8.70999Z" fill="#CCCCCC"/>
<path d="M37.58 54.15H30.5C30.13 54.15 29.82 54.46 29.82 54.83C29.82 55.2 30.13 55.51 30.5 55.51H37.58C37.95 55.51 38.26 55.2 38.26 54.83C38.26 54.46 37.95 54.15 37.58 54.15Z" fill="#CCCCCC"/>
<path d="M37.58 56.78H30.5C30.13 56.78 29.82 57.09 29.82 57.46C29.82 57.83 30.13 58.14 30.5 58.14H37.58C37.95 58.14 38.26 57.83 38.26 57.46C38.26 57.09 37.95 56.78 37.58 56.78Z" fill="#CCCCCC"/>
<path d="M43.17 19.83C42.91 19.57 42.47 19.57 42.21 19.83L39.98 22.06L37.75 19.83C37.49 19.57 37.05 19.57 36.79 19.83C36.53 20.09 36.53 20.53 36.79 20.79L39.02 23.02L36.79 25.25C36.53 25.51 36.53 25.95 36.79 26.21C36.93 26.35 37.1 26.41 37.27 26.41C37.44 26.41 37.61 26.35 37.75 26.21L39.98 23.98L42.21 26.21C42.35 26.35 42.52 26.41 42.69 26.41C42.86 26.41 43.03 26.35 43.17 26.21C43.43 25.95 43.43 25.51 43.17 25.25L40.94 23.02L43.17 20.79C43.44 20.52 43.44 20.09 43.17 19.83Z" fill="#CCCCCC"/>
<path d="M51.35 43.96C50.98 43.96 50.67 44.27 50.67 44.64V59.97H27.99V38.37C27.99 38 27.68 37.69 27.31 37.69C26.94 37.69 26.63 38 26.63 38.37V59.97H14.46V44.63C14.46 44.26 14.15 43.95 13.78 43.95C13.41 43.95 13.1 44.26 13.1 44.63V60.65C13.1 61.02 13.41 61.33 13.78 61.33H51.35C51.72 61.33 52.03 61.02 52.03 60.65V44.63C52.03 44.25 51.72 43.96 51.35 43.96Z" fill="#CCCCCC"/>
</svg>
